<?xml version="1.0" encoding="UTF-8" standalone="no"?>
<svg
   xmlns:dc="http://purl.org/dc/elements/1.1/"
   xmlns:cc="http://creativecommons.org/ns#"
   xmlns:rdf="http://www.w3.org/1999/02/22-rdf-syntax-ns#"
   xmlns:svg="http://www.w3.org/2000/svg"
   xmlns="http://www.w3.org/2000/svg"
   xmlns:sodipodi="http://sodipodi.sourceforge.net/DTD/sodipodi-0.dtd"
   xmlns:inkscape="http://www.inkscape.org/namespaces/inkscape"
   version="1.0"
   width="1000"
   height="1056"
   viewBox="0,0,333.3,352"
   id="svg2426"
   inkscape:version="0.91 r13725"
   sodipodi:docname="Artigas4.svg"
   inkscape:export-filename="C:\Users\janit\Desktop\Uruguay_location_map.png"
   inkscape:export-xdpi="90"
   inkscape:export-ydpi="90">
  <metadata
     id="metadata71">
    <rdf:RDF>
      <cc:Work
         rdf:about="">
        <dc:format>image/svg+xml</dc:format>
        <dc:type
           rdf:resource="http://purl.org/dc/dcmitype/StillImage" />
        <dc:title></dc:title>
      </cc:Work>
    </rdf:RDF>
  </metadata>
  <defs
     id="defs69" />
  <sodipodi:namedview
     pagecolor="#ffffff"
     bordercolor="#666666"
     borderopacity="1"
     objecttolerance="10"
     gridtolerance="10"
     guidetolerance="10"
     inkscape:pageopacity="0"
     inkscape:pageshadow="2"
     inkscape:window-width="1360"
     inkscape:window-height="745"
     id="namedview67"
     showgrid="false"
     inkscape:zoom="7.9711772"
     inkscape:cx="199.95526"
     inkscape:cy="1014.0588"
     inkscape:window-x="-8"
     inkscape:window-y="-8"
     inkscape:window-maximized="1"
     inkscape:current-layer="svg2426" />
  <g
     style="fill-rule: evenodd;fill-opacity:1;"
     id="layer1">
    <g
       id="g4">
      <rect
         x="0"
         y="0"
         width="1000"
         height="1056"
         style="fill:#c6ecff;stroke:none;"
         id="Wasser" />
      <path
         d="m 64.3,21.1 c 0,0 1.4,0.4 1.8,1.4 0.7,1.6 -1.6,2.9 1.7,4.2 2.7,1 2.2,-2.4 4.6,-0.2 2,-0.5 1.1,0.4 1.6,1.3 l 0.5,0.1 0.8,0.4 c 0.8,-0.4 0.6,-1.6 1.2,-2.1 l 0.6,0 c 0.2,0.2 0.4,0.6 0.8,0.7 0.4,-0.3 0.9,-0.6 1.4,-0.8 0.7,-2 1.8,0.8 2.3,1.2 l 0.5,0.1 c 0.2,-0.3 1.3,-0.9 1.5,-0.6 3.2,1.6 3.1,-2.4 4.5,-2.3 0.2,-0.4 0.5,-0.7 0.8,-0.9 0.1,-0.7 -0.5,-1.3 -0.5,-2 0,-0.1 2.1,-3.6 2.3,-3.8 0.2,-0.3 0.7,-0.3 1,-0.3 0.2,-0.4 0,-0.9 -0.2,-1.3 l 0.1,-0.3 0.6,-0.2 0.6,0.7 0.2,-0.2 0.2,-0.4 -0.3,-0.6 c 0.2,-0.5 0.7,-0.9 1.1,-1.1 l 0.3,0.1 0.1,0.5 c 2.2,1.3 3.1,-2.5 4.7,0 1.1,0.3 2.8,-0.4 3.6,-0.2 l 2.9,0.1 0.2,0 c 1.2,-0.9 1.9,0 2.6,0.9 l 1,1.1 c 2.4,-0.1 0.1,2.7 1.6,2.8 1.6,-0.9 1.9,0.7 3.2,0.8 l 0.5,0.5 c 0.2,0.4 0.3,1.2 0.9,1.2 0,0 1.5,-0.1 1.8,-0.4 l 0.9,0.3 -0.9,0.8 c 0,0 0.5,0.3 0.8,0.5 0.1,0.5 0.6,1 1,1.2 l 0.2,0.6 c 0,0 0.4,1.2 0.7,1 1,0.6 0.1,1.5 -0.4,2.1 l 0.1,0.3 0.4,0 1.1,-0.3 0.5,-0.4 0.4,0.1 0.1,0.3 -0.2,0.4 0.2,0.2 c 0.4,0 0.7,0.4 0.9,0.7 l 0.4,0 0.4,-0.4 0.3,0 0.2,1.2 -0.2,0.4 c -0.2,0.1 -0.6,0.3 -0.6,0.6 l 0.3,1.2 c 1.2,0 1.6,-1.1 2.1,1 0.5,0.1 0.8,0.6 1.1,1 l 1.5,-0.5 0.2,0 c 0.1,0.5 0.3,1 0.7,1.3 l 0.1,0.2 c -0.4,0.3 -0.4,0.6 -0.2,1 l 0.9,0.7 0.9,-0.4 c 0.1,0.5 0.2,1.2 0.8,1.3 l 0.3,0.2 -0.5,0.6 c 0,0 1.1,2 1.3,2.2 l 1.2,0.4 c 0.2,-0.2 0.2,-0.5 0.2,-0.7 l 0.3,0 0.2,0.1 c 0.2,1.1 1.4,0.9 0.9,2.1 0.5,0.8 1.6,0.5 2.1,-0.1 l 0.4,0.1 0.1,0.8 c 0.2,0.1 1.7,1.9 1.7,2 -0.3,0.5 0.4,0.6 0.4,0.6 l 0.2,-0.1 c 0.4,0 1,-0.1 1.4,0.2 l -0.1,0.3 0.4,1.3 c 0.6,0 1.1,0.2 1.7,0.2 0.3,0.2 0.5,0.5 0.8,0.8 l -0.3,0.6 0.2,0.6 0.5,0.4 0.1,0.2 c -0.7,1.3 0.6,1.9 1.4,2.5 -1.3,2 1.1,0.5 0.7,3.5 l 0.2,0.3 c 0.7,0.1 1.2,-1.3 2.1,0.8 l 0.2,0 0.7,-0.6 0.3,-0.1 c 0.4,0.3 0.2,1 0.1,1.4 l 0.4,0.6 0.7,0.3 0.4,-0.2 0.2,0 0.2,0.6 0.6,0.7 c 0,0.4 0.5,1.2 0.5,1.2 l 0,0.2 c 0.7,0.3 0.7,0.7 0.6,1.3 2.5,1.6 0.8354,4.010514 0.8354,4.010514 l 2.37198,4.176679 1.11829,0.349811 3.00663,2.735782 2.89805,1.577025 L 165.9,77 c 0,0 0.8,-1.1 1.4,-1.5 0.7,-0.5 1.5,-0.9 2.3,-1.5 0.6,-0.6 2.3,-2.3 2.9,-2.6 0.7,-0.1 1.3,0.4 2,0.1 0.4,-0.2 0.7,-0.7 0.9,-1.1 1.4,-2.7 -1.1,-6 2.2,-6.3 0.6,-0.1 0.9,0 1.4,0.5 1.8,3.4 -0.3,0.8 3.3,3.4 1.1,0.8 1.2,2.4 1.9,2.8 0.6,0.5 2.2,0.9 2.7,1.5 0.5,0.7 0.2,1.8 0.8,2.4 0.9,1.2 2.7,0.1 4.4,3.8 0.5,1.1 0.7,4.3 1.4,4.8 0.6,0.4 1.5,0.9 1.9,1.4 0.1,0.1 2.6,6 3,6.3 0.8,0.8 2.4,0.8 3.4,1.4 2.4,1.4 4.9,5.2 8.4,2.3 0.7,-0.6 0.9,-1.7 1.1,-1.8 l 0.3,0 c 1,1.2 1.3,2.6 2.4,3.7 1.7,1.8 0.9,2.5 1.5,3.3 1,0.2 2.4,0.2 3.1,0.6 1.5,0.9 1.8,2.8 3.6,3.1 1.9,-0.6 5.4,-0.9 7.3,0.1 l 0.2,0 c 1.9,-0.1 4.4,0.2 6.1,0 0.1,0.7 0.5,1.5 0.8,2.2 1,0.4 3.5,1.5 4.1,2.2 1.1,1.4 2.3,8.1 2.3,9.9 2.3,1 13.9,10.1 16.8,12.4 0.5,0.4 0.8,1 1.3,1.3 1.3,1 1.3,0.3 3,2 0.4,0.2 1.1,0.1 1.5,0 2.5,-3.3 2.9,0.7 3.9,0.7 0.6,0.1 1.9,-0.1 2.4,0.5 l 0.1,0.2 -0.4,1 c 0.1,0.3 0.4,0.8 0.7,1 l 0.3,0 0.4,-0.4 0.3,0.5 c 0.7,0.4 1.4,0.1 2.2,1.1 0.4,0.4 0.5,1.5 1.3,1.5 0.2,-0.1 0.7,-0.2 0.9,-0.1 l 0.4,0.3 c 0.2,0.6 0.2,1.2 0.1,1.8 l 0,0.2 0.6,-0.1 0.1,0.7 0.4,0.2 c 0,0.7 0.2,1.2 1,1.2 0.4,0.6 1.1,0.7 1.8,0.6 0.4,0.3 1.8,0.7 2.3,0.7 0.2,0.2 0.6,0.9 0.7,1.2 l 0.9,0.3 -0.4,0.4 -0.2,0.1 -0.2,-0.3 -0.2,0.1 c 0.1,0.3 -0.1,0.8 -0.3,1.1 0,0.3 0.7,1.2 0.9,1.4 0,0.2 -0.4,0.6 -0.5,0.7 l 0.6,0.1 0.4,0.3 -0.2,0.7 0.6,0.6 -0.1,0.3 c 0.1,0.1 0.1,0.2 0.3,0.3 l 0.5,0.1 0,0.2 -0.3,0.2 -0.1,0.2 0.1,0.4 0.3,0.1 0.4,0 c 0,0.5 0.7,1.4 1,1.7 -0.2,0.3 0,1.2 -0.1,1.7 l 0.1,0.2 c 0.3,0.1 0.6,0.4 0.7,0.7 l 0.4,0.1 0.3,0.9 0.5,0.2 c 0.1,0.3 0.1,0.8 0,1.1 l -0.2,0.2 -0.4,0 0,0.4 c 0.7,0.6 0.7,1.5 1.3,2.1 l -0.3,0.5 0.1,0.3 -0.4,0.4 c -0.1,1.2 0.2,1.5 1.3,1.7 0.3,0.4 0.3,0.9 0.2,1.4 0.3,0.2 0.6,0.6 0.7,0.9 0.2,0.2 0.4,0.2 0.7,0.3 0.2,0.3 0.4,0.7 0.5,1.1 0.7,0.4 1.2,1.4 1.9,1.4 l 0.4,0.5 c 0.3,0 0.6,0.2 0.7,0.4 0.3,0.1 0.7,-0.1 0.9,-0.3 l 0.3,0.2 c 0.6,0 1.6,-0.2 2.3,-0.4 0.2,0.2 0.4,0.4 0.4,0.6 l -0.2,0.5 c 0.5,1.6 1.4,2.9 2.1,4.5 l 0.5,0 c 0.4,0.3 1.2,1.3 1.4,1.3 l 0.6,-0.1 0.5,-0.5 0.5,0.1 1,0.7 c 1.2,-0.1 2.6,1.2 3.4,2 l 0.4,-0.1 c 0.7,-0.4 0.7,-0.9 1.8,-0.7 0.3,0.3 0.8,1.3 0.9,1.7 0.6,0.4 1.6,0.8 2.3,0.8 0.5,0.4 0.7,1.1 1.2,1.5 l 2.3,2 c 1.3,1.1 0.8,0.6 1.5,1.3 1.4,1.3 2.5,3.2 0.3,4.4 -0.5,0.3 -1.6,0.1 -2.2,0.2 -0.5,0.1 -1.1,0.5 -1.4,0.9 -0.2,0.9 -0.3,2 -0.9,2.7 -1.6,2.3 -5.2,2.5 -6.9,4.6 -0.1,0.2 0,0.5 0.1,0.6 0.7,0.9 1.9,0.6 2.8,1 -1.5,2.1 -5.1,2.9 -6.8,4.9 -5.1,3.5 -4.8,3.3 -8,8.7 -1.4,2.2 -1.2,6.1 -1,8.6 0.4,3.3 0.9,6 0.7,9.3 -0.2,3.3 -0.5,6.5 -0.8,9.7 -0.3,2.8 0.3,5.6 -0.2,8.4 1.1,0.1 4.6,0.1 5.4,1 0.3,0.5 0.2,1.5 0.3,2.1 0.2,0.5 2.6,1 3,1.1 -2.8,2 -1.5,0 -3.8,2.6 -1.5,1.6 -3.1,4.8 -3.4,6.9 -0.2,1.5 -0.1,2.9 -0.5,4.4 -0.3,1 -1,2 -1.1,3 -0.2,1.1 0.1,2.8 -0.6,3.7 -0.5,0.6 -2,1.1 -2.6,1.6 -1.2,0.9 -1.8,2.3 -2.7,3.4 -1,1 -2.4,1.7 -3.4,2.7 -0.4,0.3 -0.8,0.6 -1,1 -0.2,0.4 -0.5,0.7 -0.7,1 -0.6,1.1 -1.5,2.1 -2,3.2 -0.4,1 -0.3,2.2 -0.6,3.2 -0.7,1.9 -1.6,1.9 0.2,3.7 0.7,1.8 -4.5,3.5 -5.7,4.1 -2.3,1.3 -4.5,2.8 -6.6,4.3 -0.8,0.5 -9.5,9.2 -9.6,9.6 -0.1,0.6 0.5,1.2 0.1,1.8 -0.5,0.7 -4.2,0.3 -6.2,1.5 l -0.4,-0.1 0,-0.3 c 0.1,-0.5 0.7,-1 1.2,-1.1 l 0.1,-0.3 c -0.7,-1.5 -2,-2.9 -0.4,-4.3 l 0.1,-0.4 c 0,-0.2 -0.1,-0.5 -0.2,-0.7 -0.9,-0.6 -1,-0.2 -1.8,-0.1 -1,-0.3 -1.6,-1.7 -2.9,-1.1 l 0,0.3 c 0.7,0.4 1.9,0.7 2.5,1.4 0,0.2 0,0.4 -0.1,0.6 -0.5,0.5 -2.8,1.5 -3.4,2.2 -0.1,0.2 -0.2,0.6 -0.2,0.8 0.4,0.5 0.5,1 1.2,1.2 0.1,-0.4 0,-0.8 0,-1.2 1.2,-0.4 4.2,2.9 1.8,3.9 -1,0.4 -1.4,0.8 -2.3,1.4 -0.4,0.2 -1,0.3 -1.4,0.5 -3,1.1 -5.6,3.2 -8.5,4.4 -1.7,0.7 -3.7,1.2 -5.3,2.1 -0.6,0.3 -1,1.1 -1.7,1.5 -0.8,0.4 -2.5,0 -3.6,0.5 -2.3,0.9 -4.3,2.7 -6.5,3.7 -2,0.8 -4.6,1 -6.3,2.4 -0.6,0.5 -1.1,1.2 -1.7,1.7 l -0.4,-0.1 -0.2,-0.3 c 0,-0.6 0.4,-1.1 0.3,-1.6 -1,-1.7 -3.1,-1.6 -4.7,-1.6 -0.3,-0.2 -0.4,-0.7 -0.2,-1 0.2,-0.7 -0.8,-1.1 -1.4,-1.3 -5,-1.3 -7.9,1.7 -11.2,1.1 -0.2,-0.2 -0.4,-0.5 -0.7,-0.7 -0.3,0 -0.6,0 -0.8,-0.2 -0.2,-0.7 0.3,-1.6 -0.8,-1.8 l -0.3,-0.3 c 0.2,-0.7 -0.6,-0.8 -1,-1.2 -2.8,-3.1 -4.6,-2.6 -8.5,-2.3 -0.8,0.1 -1.4,-0.2 -2.1,-0.2 -0.5,-0.1 -0.8,0.2 -1.2,0.1 -0.6,0 -3,-1.2 -3.8,-1.5 -0.9,-0.3 -1.7,0 -2.5,0 -1.6,-0.1 -2.2,-0.9 -4.1,-0.5 -0.6,0.2 -1.3,0.7 -1.9,0.9 -0.8,0.2 -1.9,-0.2 -2.7,0 -1.4,0.2 -3.1,1.3 -4.4,2 -0.8,0.5 -1.8,0.2 -2.6,0.6 -2,0.8 -3.7,2.6 -5.6,3.7 -1.9,1 -4.8,1.3 -7,2 -0.8,0.3 -1.8,1.2 -2.6,1.1 -0.3,-0.2 -0.3,-0.6 -0.5,-0.9 -0.4,0 -0.9,0.1 -1.3,0.1 l -0.2,-0.2 c 0.1,-0.4 0.3,-0.7 0.4,-1 l 0,-0.4 c -2.2,-1.4 -2.3,1.1 -3.6,1.1 -0.6,0 -1,-0.4 -1.6,-0.3 -0.5,0 -0.9,0.4 -1.5,0.2 -0.5,-0.2 -0.8,-1.5 -1.4,-1.9 -0.3,-0.2 -0.9,-0.4 -1.3,-0.6 -0.5,-0.3 -0.9,-0.9 -1.5,-1.3 -0.6,-0.3 -1.2,-0.4 -1.8,-0.7 l 0,-0.3 c 1.2,-2 2.3,-1.6 3.4,-2.6 l 0,-0.3 c -1.5,-0.7 -3.2,-0.1 -4.7,-1.3 l -0.2,-0.2 c -1.3,-0.9 -4.3,0.4 -6,0.2 -1.3,-0.2 -2.3,-1.9 -3.8,-2.5 -1.8,-0.6 -3.9,-0.8 -5.7,-1.2 -2,-0.5 -3.8,-1.2 -5.7,-1.8 -0.9,-0.2 -1.4,-0.9 -2.2,-1.2 -0.5,-0.3 -1.3,-0.2 -1.9,-0.6 -0.5,-0.3 -0.3,-1.3 -0.8,-1.9 l -0.4,-0.4 c -0.5,-0.4 -1.1,-0.6 -1.5,-0.9 -0.6,-0.6 -1.2,-1.3 -1.9,-1.9 -0.1,-0.1 -0.3,-0.3 -0.5,-0.4 -0.6,-0.3 -1.3,-0.6 -1.9,-0.9 -0.5,-0.2 -1,-0.4 -1.3,-0.8 -0.5,-0.6 -0.6,-1.8 -1.1,-2.5 -0.6,-0.9 -2.5,-3.4 -3.4,-3.5 -0.7,-0.2 -1.5,0 -2.3,-0.2 -0.6,-0.2 -1.1,-0.7 -1.6,-0.8 -2.5,-0.5 -6.1,0.4 -8.7,0.1 -0.5,0 -1,-0.4 -1.5,-0.4 -1,0 -2.1,0.5 -3.1,0.5 -1,0.1 -1.6,-0.6 -2.2,-0.5 -1.2,0.1 -2.3,1.4 -3.6,1.4 -1.6,0 -1.1,-2.2 -4.3,-1.5 -1.5,0.3 -2.8,1 -4.2,1.3 l -3.6,0.9 c -1,0.2 -1.9,0.1 -2.9,0.3 -1,0.2 -2.3,1.2 -3.3,1 -0.2,-0.1 -0.3,-0.3 -0.4,-0.5 0,-0.4 0,-0.8 -0.1,-1.2 -0.5,-0.7 -1.1,-0.4 -1.5,-1.3 -0.7,-1.5 -0.9,-3.5 -1.7,-4.9 -1.3,-2.2 -3.3,-3.9 -4.9,-5.7 -0.7,-0.8 -1,-1.7 -1.8,-2.4 -0.6,-0.5 -1.5,-0.7 -2.1,-1.2 -1,-0.8 -0.4,-2.3 -1.4,-3 -2.1,-1.6 -5.2,-0.7 -7.2,-1.9 -0.5,-0.6 0,-1.6 -0.2,-2.4 -0.2,-0.8 -1.7,-3.1 -2.2,-3.9 -0.5,-0.8 -1.5,-1.1 -2.1,-1.8 -0.7,-1 -0.3,-2 -1.6,-3.2 -1.4,-1.4 -3.4,-1.9 -4.9,-3.6 -0.8,-1 -0.5,-2.3 -0.7,-3.4 -0.2,-1.2 -0.9,-2.2 -1,-3.4 -0.2,-1.9 0,-3.8 -0.1,-5.7 -0.1,-1.1 -0.5,-2.3 -0.4,-3.4 0,-1.3 1,-2.4 0.9,-3.9 0,-2.2 -1.3,-3.2 -0.7,-5.9 0.5,-2.3 3.2,-3.9 3.2,-5.9 0,-1.6 -0.3,-2.2 -2,-2.4 0,-0.2 -0.2,-0.4 -0.3,-0.6 0.2,-0.7 0.7,-2.7 1.1,-3.2 1,-1.4 3.1,-0.7 3.1,-5.5 0,-0.6 -0.5,-1 -0.6,-1.5 -0.2,-0.6 0,-1.4 0,-2.1 -0.2,-2.5 -1.5,-4.5 0.6,-6.7 1.5,-0.2 2.8,-0.1 4.1,0 l -0.1,-0.7 c 3.3,-0.5 6.6,-1.2 7.9,-4.6 0.7,-2 0.9,-4.1 1.4,-6.2 0.2,-0.9 -0.2,-1 -0.4,-1.8 -0.2,-0.7 0.2,-1.4 0.2,-2.1 0.1,-1.3 -0.4,-2.7 -0.6,-4 -0.2,-1.1 -0.7,-2.1 -0.9,-3.3 -0.4,-2.6 -0.3,-6.3 -0.5,-9.2 -0.1,-1.1 -0.8,-1.7 -1.1,-2.7 -1.2,-3.7 -3.3,-12.7 1,-15.1 l 0.2,0 c 1.7,-1.1 1.6,-1.4 2.4,-3.1 1.8,-4.2 -1.5,-4.5 -1.2,-6.4 -0.8,-1.3 -3.3,-3.2 -3,-4.8 0.4,-2.1 0.6,-4.7 2.3,-6.2 0.4,-1 0.1,-2.3 -0.3,-3.4 l -1.7,0 c 0,-0.1 0.9,-0.6 1.1,-0.8 0.6,-1.7 -1.3,-4.5 -2.5,-5.5 -1.2,-3.8 2.5,-5.6 5.7,-5.1 2.8,-1.1 5.8,-12.8 6.9,-16.2 0.1,-0.2 -0.2,-0.9 -0.3,-1 -0.5,-0.9 -1,-2.2 -1.7,-3.1 -1.1,-1.4 -3.6,-0.9 -4,-3.1 0.2,-2.4 3.1,-3.6 5,-4.2 1.6,-0.6 0.5,-2.7 0.4,-3.1 0,-0.8 0.4,-1.8 0.6,-2.6 0.2,-1 2.1,-2 2.5,-3.1 0.7,-2.1 1.3,-4.3 1.8,-6.5 0.3,-1.6 -0.9,-2 0.2,-3.9 l 1.9,-3.6 c 1.7,-3.2 -3.1,-7.6 -2.4,-9.6 0.5,-0.6 1.6,-0.7 2.3,-0.5 0.1,0.2 0.5,0.3 0.8,0.5 1.7,0.9 2,-0.9 2.5,-2 1.6,-3.8 0.2,-2.9 0.4,-4.2 0.1,-0.7 0.6,-1.6 0.5,-2.3 -0.1,-1.1 -0.5,-2.2 -0.5,-3.2 -0.1,-0.8 0.1,-1.7 0,-2.5 -0.1,-1.1 -1.3,-2.1 -1.9,-2.9 -0.8,-0.9 0,-2.3 -0.6,-2.8 -0.4,-0.4 -2.2,-1.7 -2.2,-2.3 0.6,-1.2 0.4,-2.7 0.6,-4 0.2,-1.1 2.2,-3.3 3,-3.9 0.6,-0.4 1.6,-0.6 2.1,-1.1 1.3,-1.3 1.4,-1.5 3.2,-2.6 0.6,-0.4 1.8,-1.5 2.5,-1.6 0.7,-1.8 2.5,0.2 3.8,-5.3 0.2,-0.9 0.5,-2.4 0.9,-3.1 0.2,-1.1 -3.3,-3.1 -1.9,-4.5 l 0.3,-0.2 1,0.1 c 2.1,0.2 0,1.8 1.7,1 z"
         style="fill:#fefee9;stroke:none"
         id="Uruguay"
         inkscape:connector-curvature="0"
         sodipodi:nodetypes="ccccccccccccccccsccccccccccccccccccccccccccccccccccccccccccccccccccccccccccccccccccccccccccccccccccccccccccccccccccccccccccccccccccccccccccccccccccccccccccccccccccccccccccccccccccccccccccccccccccccccccccccccccccccccccccccccccccccccccccccccccccccccscccccccccccccscccccccccccccccccccccccccccccccccccccccccccccccccccccccccccccccccsccsccccccccccccccccccscccccscsccscccsccccccccccsscccccccccscccsccccccccccccccccccccccccccccccccccccccccccccccccscccccccc" />
      <path
         d="m 0,0 0,351.9 81.2,0 c -0.8,-1.2 -1.3,-2.5 -2.4,-3.5 -1,-0.9 -2.4,-1 -3.4,-2 -2,-1.8 -2.7,-2.5 -4.8,-4.1 -0.4,-0.3 -0.7,-0.9 -1.2,-1.2 -2.6,-1.5 -4.4,-2 -7.1,-4 -0.5,-0.2 -1.1,-0.9 -1.7,-1.3 -1.9,-1.4 -3.9,-2.5 -5.8,-3.8 -1.2,-0.8 -2.2,-1.9 -3.4,-2.7 -0.8,-0.5 -3,-1.2 -4,-1.4 -6.5,-0.7 -3.7,-2 -6.8,-3.3 -0.8,-0.3 -1.5,-0.4 -2.3,-0.6 -1.7,-0.6 -3.2,-1.5 -5,-2 -1,-0.2 -2.2,-0.4 -3.2,-0.7 -1,-0.3 -7.2,-5 -8.4,-6 -1.3,-1.3 -1.5,-4.1 -2.1,-4.6 -1,-0.7 -2.3,-0.1 -3.3,-0.6 -0.6,-0.3 -0.4,-0.8 -0.7,-1.1 -0.4,-0.3 -1,-0.3 -1.4,-0.6 -1,-0.8 0.1,-2.9 -0.9,-4.2 -0.7,-1 -2.2,-1.3 -2.6,-2.5 -0.5,-1.7 1.4,-2.2 1.8,-3.2 0.2,-0.6 0,-1.1 0.2,-1.6 0.1,-0.4 0.4,-0.6 0.5,-1 0.3,-2 -3.3,-3 -4.8,-4.1 l -0.1,-0.3 c 0.2,-0.1 0.5,-0.1 0.7,-0.2 l 0.3,-0.2 c 0,-0.3 0,-0.6 0.2,-0.8 l 0.3,-0.1 c 0.4,0 0.7,0.3 1.1,0.3 1,-0.6 1.6,0 2.4,0.4 l 0.4,0 c 1,-1.2 1.1,-0.6 2,-1.2 0.7,-0.5 1.8,-2.7 1.7,-3.5 0.5,-1 1.5,-0.7 1.7,-1.5 0.3,-0.9 -0.6,-1.5 -0.7,-2.3 -0.3,-2.1 1.6,-7.3 -1,-8.3 -0.5,-0.4 -2,-0.7 -2.4,-1 -0.1,-0.9 1,-2 0.5,-3.1 -0.2,-0.3 -0.5,-0.4 -0.7,-0.7 -0.1,-0.3 0,-5 -0.4,-6.3 -0.3,-1.1 -1.1,-1.2 -1.7,-2 -1.2,-1.7 -2.8,-3.8 -3.3,-5.8 -0.2,-0.8 0.1,-1.9 0,-2.7 -0.1,-0.8 -0.2,-1.7 -0.1,-2.5 0.3,-2 1.1,-4 1.3,-6 0,-0.8 -0.4,-1.7 -0.4,-2.5 0,-1.9 0.8,-3.5 1.2,-5.2 0.1,-0.9 0,-1.8 0.2,-2.6 0.1,-0.5 0.6,-0.8 0.8,-1.2 1.1,-2 1.7,-3.4 3.4,-5 0.5,-0.5 1.2,-0.8 1.3,-1.5 0.3,-1.1 -0.9,-2 -1,-2.9 -0.1,-1.2 1.1,-8.3 0.9,-8.5 -0.5,-0.2 -0.9,-0.9 -0.9,-1.4 0.2,-0.3 0.6,-0.7 0.8,-1.1 0.8,-0.5 6.6,0.1 7.9,0.2 l 0.1,1.3 c 3.3,-0.5 6.6,-1.2 7.9,-4.6 0.7,-2 0.9,-4.1 1.4,-6.3 0.2,-0.8 -0.2,-1 -0.4,-1.7 -0.2,-0.7 0.2,-1.4 0.2,-2.1 0.1,-1.3 -0.4,-2.8 -0.6,-4 -0.2,-1.1 -0.7,-2.2 -0.9,-3.3 -0.4,-2.6 -0.3,-6.3 -0.5,-9.2 -0.1,-1.1 -0.8,-1.7 -1.1,-2.8 -1.2,-3.6 -3.3,-12.6 1,-15 l 0.2,0 c 1.7,-1.1 1.6,-1.4 2.4,-3.1 1.8,-4.2 -1.5,-4.5 -1.2,-6.4 -0.8,-1.3 -3.3,-3.2 -3,-4.8 0.4,-2.1 0.6,-4.7 2.3,-6.2 0.4,-1.1 0.1,-2.4 -0.3,-3.4 l -1.7,0 c 0,-0.1 0.9,-0.6 1.1,-0.8 0.6,-1.8 -1.3,-4.5 -2.5,-5.6 -1.2,-3.7 2.5,-5.5 5.7,-5 2.8,-1.1 5.8,-12.8 6.9,-16.2 0.1,-0.2 -0.2,-0.9 -0.3,-1 -0.5,-0.9 -1,-2.2 -1.7,-3.1 -1.1,-1.5 -3.6,-0.9 -4,-3.1 0.2,-2.4 3.1,-3.6 5,-4.3 1.6,-0.5 0.5,-2.6 0.4,-3 0,-0.8 0.4,-1.8 0.6,-2.6 0.2,-1 2.1,-2 2.5,-3.1 0.7,-2.1 1.3,-4.3 1.8,-6.5 0.3,-1.6 -0.9,-2 0.2,-3.9 l 1.9,-3.7 c 1.7,-3.1 -3.1,-7.5 -2.4,-9.6 0.5,-0.5 1.6,-0.6 2.3,-0.4 0.1,0.2 0.5,0.3 0.8,0.5 1.7,0.9 2,-0.9 2.5,-2 1.6,-3.8 0.2,-3 0.4,-4.2 0.1,-0.7 0.6,-1.6 0.5,-2.3 -0.1,-1.1 -0.5,-2.2 -0.5,-3.2 -0.1,-0.8 0.1,-1.7 0,-2.5 -0.1,-1.1 -1.3,-2.1 -1.9,-2.9 -0.8,-0.9 0,-2.3 -0.6,-2.8 -0.4,-0.4 -2.2,-1.7 -2.2,-2.3 0.6,-1.2 0.4,-2.7 0.6,-4 0.2,-1.1 2.2,-3.3 3,-3.9 0.6,-0.4 1.6,-0.6 2.1,-1.1 1.3,-1.3 1.4,-1.5 3.2,-2.6 0.6,-0.4 1.8,-1.5 2.5,-1.6 0.7,-1.8 2.5,0.2 3.8,-5.3 0.2,-0.9 0.5,-2.4 0.9,-3.1 0.2,-1.1 -3.3,-3.1 -1.9,-4.5 l 0.3,-0.2 1,0.1 c 2.1,0.2 0,1.8 1.7,0.9 0,0 1.4,0.5 1.8,1.5 0.7,1.6 -1.6,2.9 1.7,4.2 2.7,1 2.2,-2.4 4.7,-0.2 2,-0.5 1,0.4 1.5,1.3 l 0.5,0 0.8,0.4 c 0.8,-0.4 0.6,-1.5 1.2,-2 l 0.6,0 c 0.3,0.2 0.4,0.6 0.8,0.7 0.4,-0.3 0.9,-0.6 1.4,-0.8 0.7,-2 1.8,0.8 2.3,1.2 l 0.5,0.1 c 0.2,-0.3 1.3,-0.9 1.5,-0.6 3.2,1.6 3.1,-2.4 4.5,-2.3 0.2,-0.4 0.5,-0.7 0.8,-0.9 0.1,-0.7 -0.5,-1.3 -0.5,-2 0,-0.1 2.1,-3.6 2.3,-3.8 0.2,-0.3 0.7,-0.3 1,-0.3 0.2,-0.4 0,-1 -0.2,-1.3 l 0.2,-0.3 0.5,-0.2 0.6,0.7 L 93,17 93.2,16.6 92.9,16 c 0.2,-0.5 0.7,-0.9 1.1,-1.1 l 0.3,0.1 0,0.5 c 2.3,1.3 3.2,-2.6 4.8,0 1.1,0.3 2.8,-0.4 3.6,-0.1 l 2.9,0 0.2,0 c 1.3,-0.9 1.9,0 2.7,0.9 l 0.9,1.1 c 2.4,-0.1 0.1,2.7 1.6,2.7 1.6,-0.8 1.9,0.8 3.2,0.9 l 0.6,0.5 c 0.1,0.4 0.1,1.2 0.7,1.2 0,0 1.6,-0.1 1.9,-0.4 l 0.9,0.3 -0.9,0.8 c 0,0 0.5,0.3 0.8,0.5 0.1,0.5 0.6,1 1,1.2 l 0.2,0.5 c 0,0 0.4,1.3 0.7,1.1 1,0.6 0.2,1.5 -0.4,2.1 l 0.1,0.2 0.4,0.1 1.1,-0.3 0.5,-0.4 0.4,0.1 0.1,0.3 -0.2,0.4 0.2,0.2 c 0.4,0 0.7,0.4 0.9,0.7 l 0.4,0 0.4,-0.4 0.3,0 0.2,1.2 -0.2,0.4 c -0.2,0.1 -0.6,0.3 -0.6,0.6 l 0.3,1.2 c 1.2,0 1.6,-1.2 2.1,1 0.5,0.1 0.8,0.6 1.1,1 l 1.5,-0.6 0.2,0.1 c 0.1,0.5 0.3,1 0.7,1.3 l 0.1,0.2 c -0.4,0.3 -0.4,0.5 -0.2,1 l 0.9,0.7 0.9,-0.4 c 0.1,0.5 0.2,1.1 0.8,1.3 l 0.2,0.2 -0.4,0.6 c 0,0 1.1,2 1.3,2.2 l 1.2,0.4 c 0.2,-0.2 0.2,-0.5 0.2,-0.7 l 0.3,0 0.2,0.1 c 0.2,1.1 1.5,0.9 0.9,2.1 0.5,0.8 1.6,0.5 2.1,-0.1 l 0.4,0.1 0.1,0.8 c 0.2,0.1 1.7,1.9 1.7,2 -0.2,0.4 0.4,0.6 0.4,0.6 l 0.2,-0.2 c 0.4,0 1,0 1.4,0.3 l -0.1,0.3 0.4,1.3 c 0.6,0 1.1,0.2 1.7,0.2 0.3,0.2 0.5,0.5 0.8,0.8 l -0.3,0.7 0.1,0.5 0.6,0.4 0.1,0.2 c -0.7,1.2 0.6,1.9 1.5,2.5 -1.4,2 1,0.5 0.6,3.5 l 0.2,0.2 c 0.7,0.2 1.2,-1.2 2.1,0.9 l 0.2,0 0.7,-0.6 0.3,-0.1 c 0.4,0.3 0.3,1 0.1,1.4 l 0.4,0.6 0.7,0.4 0.4,-0.3 0.2,0 0.2,0.6 0.6,0.7 c 0,0.3 0.5,1.2 0.5,1.2 l 0,0.2 c 0.7,0.2 0.7,0.7 0.6,1.3 2.5,1.6 0.13346,1.821406 0.93346,4.721406 -0.2,0.4 0.21284,1.608945 -0.0872,2.008945 L 155.45408,71.079378 154.7,71.4 l 0,1.1 0.3,0.4 -0.5,0.7 0.3,0.2 c 0.84014,0.340946 -0.48188,4.499137 -0.1,5.3 1,0.4 2.3,1.4 3.3,1.6 0.3,0.1 4.5,-0.4 4.6,-0.5 1,-0.7 1.8,-1.5 2.8,-2.1 0.2,-0.1 0.4,-0.2 0.5,-0.3 0.5,-0.5 0.8,-1.1 1.4,-1.5 0.7,-0.6 1.5,-0.9 2.3,-1.5 0.6,-0.6 2.3,-2.3 2.9,-2.6 0.7,-0.1 1.3,0.4 2,0.1 0.5,-0.2 0.7,-0.7 0.9,-1.1 1.4,-2.7 -1.1,-6 2.2,-6.3 0.6,-0.1 0.9,0 1.4,0.5 1.8,3.4 -0.3,0.8 3.3,3.5 1.1,0.7 1.2,2.3 1.9,2.7 0.6,0.5 2.2,0.9 2.6,1.5 0.6,0.7 0.3,1.7 0.9,2.4 0.9,1.2 2.7,0.1 4.4,3.8 0.5,1.1 0.7,4.2 1.4,4.8 0.6,0.4 1.5,0.9 1.9,1.4 0.1,0.1 2.6,6 3,6.3 0.8,0.8 2.4,0.8 3.4,1.4 2.4,1.4 4.9,5.2 8.4,2.3 0.7,-0.6 0.9,-1.7 1.1,-1.8 l 0.3,0 c 1,1.2 1.3,2.6 2.4,3.7 1.7,1.8 0.9,2.5 1.6,3.3 0.9,0.2 2.2,0.2 3,0.6 1.5,0.9 1.8,2.8 3.6,3.1 1.9,-0.6 5.4,-0.9 7.2,0.1 l 0.3,0 c 1.9,-0.1 4.5,0.3 6.1,0 0.1,0.7 0.5,1.5 0.8,2.2 1,0.4 3.5,1.5 4.1,2.2 1.1,1.4 2.3,8.1 2.3,9.9 2.3,1 13.9,10.1 16.8,12.4 0.5,0.4 0.8,1 1.3,1.3 1.3,1 1.3,0.3 3,2 0.4,0.2 1.1,0.1 1.5,0 2.5,-3.3 2.9,0.7 3.9,0.7 0.6,0.1 1.9,-0.1 2.4,0.5 l 0.1,0.2 -0.4,1 c 0.1,0.3 0.4,0.8 0.7,1 l 0.3,0 0.4,-0.4 0.4,0.5 c 0.6,0.4 1.3,0.1 2.1,1.1 0.4,0.4 0.5,1.4 1.3,1.5 0.2,-0.1 0.7,-0.2 0.9,-0.1 l 0.4,0.3 c 0.2,0.5 0.2,1.2 0.1,1.8 l 0,0.2 0.6,-0.1 0.2,0.7 0.3,0.2 c 0,0.7 0.2,1.2 1,1.1 0.4,0.7 1.1,0.8 1.8,0.6 0.4,0.4 1.8,0.8 2.2,0.8 0.3,0.2 0.7,0.9 0.8,1.2 l 0.8,0.3 -0.3,0.4 -0.2,0.1 -0.2,-0.3 -0.2,0.1 c 0.1,0.3 -0.1,0.8 -0.3,1.1 0,0.3 0.7,1.2 0.9,1.4 0,0.2 -0.4,0.5 -0.5,0.7 l 0.5,0 0.5,0.4 -0.2,0.7 0.6,0.6 0,0.3 c 0,0.1 0,0.2 0.1,0.3 l 0.6,0.1 0,0.2 -0.3,0.2 -0.1,0.2 0.1,0.4 0.3,0.1 0.4,0 c 0,0.5 0.7,1.4 1,1.7 -0.2,0.3 0,1.2 -0.1,1.6 l 0.1,0.3 c 0.3,0.1 0.6,0.4 0.7,0.7 l 0.4,0.1 0.2,0.9 0.6,0.2 c 0.1,0.3 0.1,0.8 0,1.1 l -0.3,0.2 -0.3,0 0,0.4 c 0.7,0.6 0.7,1.5 1.3,2.1 l -0.3,0.5 0,0.3 -0.3,0.4 c -0.1,1.2 0.2,1.5 1.3,1.6 0.4,0.5 0.3,1 0.2,1.5 0.3,0.2 0.6,0.6 0.7,0.9 0.2,0.2 0.4,0.2 0.7,0.3 0.2,0.3 0.4,0.7 0.5,1.1 0.7,0.4 1.2,1.4 1.9,1.4 l 0.5,0.5 c 0.2,0 0.5,0.2 0.6,0.4 0.3,0.1 0.7,-0.1 0.8,-0.3 l 0.3,0.2 c 0.7,0 1.7,-0.3 2.4,-0.4 0.2,0.2 0.4,0.4 0.4,0.7 l -0.1,0.4 c 0.4,1.6 1.3,2.9 2,4.5 l 0.5,0 c 0.4,0.2 1.1,1.2 1.4,1.3 l 0.6,-0.1 0.5,-0.5 0.5,0 1.1,0.8 c 1.1,-0.1 2.5,1.2 3.3,2 l 0.4,-0.1 c 0.7,-0.4 0.6,-0.9 1.8,-0.7 0.3,0.3 0.8,1.3 0.9,1.7 0.6,0.4 1.6,0.7 2.3,0.7 0.5,0.5 0.7,1.1 1.2,1.5 l 2.3,2.1 c 1.3,1.1 0.8,0.6 1.5,1.3 1.4,1.3 2.5,3.1 0.3,4.4 -0.5,0.3 -1.6,0.1 -2.2,0.2 -0.5,0 -1.1,0.5 -1.4,0.9 -0.2,0.9 -0.3,2 -0.9,2.7 -1.6,2.2 -5.2,2.5 -6.9,4.6 -0.1,0.2 0,0.5 0.1,0.7 0.7,0.8 1.9,0.5 2.8,0.9 -1.5,2.1 -5.1,2.9 -6.8,4.9 -5.1,3.4 -4.8,3.3 -8,8.7 -1.4,2.2 -1.3,6.1 -1,8.6 0.4,3.3 0.8,6 0.7,9.3 -0.2,3.3 -0.5,6.5 -0.8,9.7 -0.3,2.8 0.3,5.6 -0.2,8.4 1.1,0.1 4.6,0.1 5.4,1 0.3,0.5 0.2,1.5 0.3,2.1 0.2,0.4 1.4,0.7 2.3,0.9 1.4,-1.1 2.9,-2 4.5,-3.1 2.9,-1.9 5.3,-4.4 7.6,-6.9 0.6,-0.6 4.8,-4.9 5.1,-5.2 0.8,-0.6 1.7,-1.1 2.5,-1.7 1.1,-0.8 1.9,-2.1 3,-3 0.7,-0.6 1.5,-0.9 2.2,-1.4 1.3,-1 2.5,-2.4 3.6,-3.6 L 333.3,0 0,0 Z m 302.5,257.8 c -0.2,0.2 -0.5,0.4 -0.8,0.9 0.3,-0.4 0.5,-0.7 0.8,-0.9 z"
         style="fill:#e0e0e0;stroke:none"
         id="Nachbarstaaten"
         inkscape:connector-curvature="0"
         sodipodi:nodetypes="cccccccccccccccsccsccccccccccccccccccccccccccssccscccccccccccccsccccccccccccccccccccccccccccccccccccccccscccccccccccccccccccccccsccccccccccccccccccccccccccccccccccccccccccccccccccccccccccccccccccccccccccccccccccccccccccccccccccccccccccccsccccccccccccccccccccccccccccccccccccccccccccccccccccccccccccccccccscccccccccccccccccccccccccccccccccccccccccccccccccccccccccccccccccccccccccccccccc" />
    </g>
    <g
       style="fill:none;stroke:#0978ab;stroke-width:1;stroke-linejoin:round;"
       id="Fluesse">
      <path
         d="m 116.3954,-38.121111 c -0.5,0.9 -1.2,1.9 -1.9,2.7 -0.9,1.1 -2.7,0 -3.8,2 -0.5,0.9 -0.1,2 -0.4,2.8 -1.2,1.4 -1.5,2.4 -2.3,3.2 -0.7,0.8 -1.9,1 -2.6,1.8 -0.2,0 -0.5,0.1 -0.8,0.2 -0.5,0.3 -0.6,1.1 -1,1.6 -1.3,1.5 -3.2,2.8 -4.100002,4.5 0,0.6 0.4,1.7 -0.1,2.1 -2.2,-0.1 -3.6,3.2 -4.7,4.5 -2.4,2.4 -3.2,4.0000003 -6,5.7000003 -3.8,2.3 -5.1,0.1 -7,1.9 -4.7,4.30000004 -0.6,7 -3.4,11.8 -1.1,1.2 -2.9,1.3 -4,2.6 -0.6,0.6 -1.3,1.4999997 -1.7,2.1999997 -1.2,1.8 -1.2,3.2 -3.6,4.5 C 67.195398,16.878889 68.4,21 66.3,20.8 l -1,-0.2 -2.047983,-0.166218 c -1.3,1.4 -2.881764,-0.262185 -3.181764,0.837815 C 59.770253,21.971597 62.4,27.6 62.2,28.4 60.9,34 59,32 58.3,33.8 c -0.6,0 -1.9,1.1 -2.5,1.5 -1.7,1.1 -1.8,1.3 -3.2,2.6 -0.5,0.5 -1.5,0.8 -2.1,1.2 -0.8,0.6 -2.7,2.7 -2.9,3.8 -0.3,1.3 -0.1,2.8 -0.7,4.1 0,0.5 1.9,1.9 2.2,2.2 0.6,0.6 -0.1,1.9 0.6,2.9 0.7,0.8 1.8,1.8 1.9,2.9 0.1,0.8 0,1.6 0,2.4 0.1,1.1 0.5,2.2 0.6,3.2 0,0.8 -0.4,1.6 -0.5,2.3 -0.2,1.3 1.1,0.5 -0.5,4.3 -0.5,1.1 -0.7,2.8 -2.5,1.9 -0.2,-0.1 -0.6,-0.2 -0.8,-0.5 -0.7,-0.2 -1.8,-0.1 -2.2,0.5 -0.8,2.1 4,6.5 2.4,9.6 L 46,82.3 c -0.9,1.9 0.2,2.4 -0.1,4 -0.5,2.2 -1.1,4.3 -1.8,6.5 -0.4,1 -2.2,2.1 -2.5,3 -0.2,0.8 -0.6,1.8 -0.5,2.6 0,0.5 1.2,2.5 -0.5,3.1 -1.9,0.7 -4.7,1.8 -5,4.2 0.4,2.2 3,1.7 4.1,3.2 0.6,0.8 1.1,2.1 1.7,3.1 0.1,0.1 0.3,0.8 0.3,0.9 -1.2,3.4 -4.2,15.2 -6.9,16.2 -3.3,-0.5 -7,1.4 -5.7,5.1 1.2,1.1 3,3.8 2.4,5.5 -0.2,0.3 -1.1,0.8 -1.1,0.9 l 1.8,0 c 0.4,1 0.6,2.3 0.2,3.4 -1.7,1.5 -1.9,4 -2.2,6.1 -0.4,1.7 2.1,3.6 3,4.8 -0.3,2 2.9,2.2 1.1,6.5 -0.8,1.7 -0.8,1.9 -2.3,3.1 l -0.3,0 c -4.3,2.3 -2.1,11.4 -1,15 0.3,1 1,1.6 1.1,2.7 0.3,3 0.2,6.6 0.6,9.3 0.2,1.1 0.7,2.1 0.9,3.2 0.2,1.3 0.6,2.8 0.5,4.1 -0.1,0.6 -0.3,1.3 -0.2,2 0.2,0.8 0.6,0.9 0.4,1.8 -0.5,2.1 -0.6,4.2 -1.4,6.3 -1.3,3.3 -4.5,4.4 -7.7,4.9"
         id="path10"
         inkscape:connector-curvature="0"
         sodipodi:nodetypes="ccccccccccccccccccccccccccccsccccccsccccccccccccccccccccccccccccccccc" />
      <path
         d="M 108,199.6 C 108,200.1 108.2,200.7 108,201.1 L 107.8,201.3 C 106,201.2 104.6,200.2 104.2,202.3 C 104.3,202.8 104.8,203.1 104.8,203.5 L 104.8,203.8 L 104.5,204 L 104.1,204 C 103.2,203.4 101.9,202.2 100.9,203.8 C 100.7,204.5 101.2,204.6 101.3,205.1 L 101.1,205.4 C 100.4,205.7 99.6,205.3 99,204.9 L 98.7,205 C 98.6,205.3 98.7,206.3 98.7,206.6 C 98.9,207.2 99.4,206.7 99.6,207.1 L 99.5,207.5 C 99.4,207.7 99.2,207.9 99,208 C 98,208.4 93.7,206.8 92.5,206.9 C 91.4,206.9 90.4,209.2 88.9,209.2 C 87.9,209.1 86.6,209.5 86.6,210.3 L 86.9,211 C 87.2,211.6 87.9,211.2 88.4,211.3 L 89.5,211.6 L 89.3,212.2 C 88.6,213.4 90.3,213.5 89.6,214.5 C 89.5,214.7 85.2,216.7 84.6,215.7 C 84.5,215 85.1,215.1 85,214.5 L 84,214 C 83.2,214.6 82.8,215.9 81.4,215.2 C 80.4,214.3 80.5,214.7 80.2,213.8 C 79.7,212.8 76.6,211.6 75.5,211.8 C 75,212.2 74.4,212.6 73.9,212.7 C 73.6,212.8 73.5,212.4 73.3,212.2 C 72.7,211.5 73.3,210.4 73.1,209.6 C 72.5,207.9 68.5,207.2 66.9,207.3 C 66.5,207.6 65.9,208.1 65.5,208.4 C 64.6,209 63.9,208.7 63.1,209.6 C 62.4,210.3 62.5,210.5 61.8,211.2 C 61.2,211.5 60.6,211.5 60.1,211.1 C 59.5,211 59.2,210.7 58.6,210.7 C 57.7,210.5 56.8,209.7 55.8,209.6 C 55.1,209.5 53.4,209.8 52.6,209.8 C 52.2,209.7 50.4,208.4 49.5,208.3 C 49,208.2 48.6,209.3 48,209.3 C 47.2,209.8 47.1,210.5 46.3,211.1 C 45.7,211.6 44.5,211.6 43.5,212.2 C 43.1,213 43.1,213.9 43.5,214.6 C 43.3,216.7 39.7,213.5 37.9,215.4 C 37.9,215.5 38.4,218.5 38.5,218.7 C 39.2,219.8 39.7,221.3 39.5,221.7 C 39.3,221.7 38.8,222.4 38.6,222.2 C 38.1,221.9 37.4,221.5 37,221.2 C 35.9,220.5 34.4,221.7 33.8,222.6 C 33.6,223.8 35.3,225.3 33.5,226.9 C 32.2,227.2 30.1,226.1 28.7,226.9 C 27.3,227.5 25.1,229.2 24,230.2 C 23.7,230.5 23.2,230.6 22.8,230.9 C 22.5,231.1 22,231.2 21.6,231.3 C 20,231.7 18.7,232.9 17.3,233.5"
         id="path12" />
      <path
         d="M 267.9,95.6 C 267.6,96.4 266.2,99.9 265.6,100.5 C 265.1,101.1 264.2,101.5 263.8,102.2 C 261.4,105.3 263.3,104 259.7,106.9 C 259.2,107 258.6,106.8 258.1,107.1 C 257.1,107.6 256.4,108.8 255.3,109.2 C 254.6,109.5 253.9,109.2 253.2,109.8 C 252.3,110.5 250.6,113.7 250,114 C 249.2,114.5 248.3,114.4 247.4,115 C 246.5,115.6 246.3,116.8 245.6,117.4 C 244.7,118.1 244.2,117.7 243.2,118.7 C 242.6,119.1 242.5,119.9 242.3,120.6 C 242.2,121.8 241,120.5 242,123.3 C 242.5,124.8 243.9,126.6 242.1,129.5 C 241.2,130.8 240.6,132.2 240.3,133.7 C 240.2,135 239.6,136.3 238.5,136.9 C 237.9,137.2 237.8,138.9 239.1,138.7 L 239.8,139.2 C 240.5,139.8 241,140.5 240.4,140.9 C 239.3,141.6 238.8,142.1 238.6,143.1 C 238.5,143.9 238.9,145.5 238.7,145.9 C 237.9,148.1 234.4,146.9 232.7,147.1 C 232,147.2 231.4,147.6 230.8,147.5 C 230,147.1 228.8,145.6 227.6,147.5 C 227.6,148 227.1,148.3 226.8,148.8 C 226.2,150.6 224.1,150.8 224.5,153.5 C 224.8,153.8 225,154.8 225,155.2 C 225.2,156.1 222.1,160.7 221.4,161.4 C 220.7,162.1 219.7,161.8 218.9,162.6 C 218.2,163.2 218.5,164.5 217.6,164.9 C 217,165.3 215.6,165.1 214.9,165.9 C 214.3,166.5 213.7,167.9 213.4,168.5 C 213,169.5 210.1,170.8 208.9,171.1 C 204.8,172.2 202.5,169 201,169.6 C 200.2,169.8 198.9,170.3 198.2,170.5 C 197.3,170.8 195.5,171.6 194.7,172 C 194.3,172.2 194.3,172.4 193.8,172.6 C 193.6,172.6 192.9,172.5 192.7,172.5 C 192.5,172.6 192,172 191.7,171.9 C 191,171.5 190.8,171.3 190.1,170.8 C 189.4,170.7 189.6,170.8 188.9,169.8 C 188.4,168.9 186.8,169.5 186.8,168.5"
         id="path14" />
      <path
         d="M -29.5,259.4 C -30.5,261.8 -32.9,259.5 -33.9,261.9 C -34.5,263.6 -32,264.3 -31.5,265.7 C -31.1,266.7 -31.4,267.3 -31.3,268.3 C -30.7,269.1 -27.2,270 -25.9,271.2 C -24.8,272.4 -25.7,274.4 -24.4,275.4 C -23.8,275.8 -20.5,276.8 -19.5,277.2 C -18.4,277.7 -18.1,278.6 -17.2,279.2 C -15.9,280.1 -14.8,280.2 -15.5,282.1 L -15.4,282.4 C -14.1,282.7 -12.8,282.5 -11.5,283.1 C -10.6,283.5 -10.2,284.3 -9.3,284.6 C -8.6,284.9 -7.8,284.7 -7.1,285.1 C -6.6,285.4 -4.8,287.4 -3.7,288.1 C -1.3,289.7 1.2,289.6 3.7,290.2 C 5.3,290.6 6.5,291.5 8.1,291.6"
         id="path16" />
      <path
         d="M 15.2,272.8 L 11,273.5 C 7.9,273.9 8.6,276.7 3.4,275.6 C 3.3,275.6 3.2,275.5 3.1,275.5 C 2.2,275.1 -1.8,271.5 -3,270.3 C -3.5,269.9 -3.9,269.1 -4.4,268.7"
         id="path18" />
      <path
         d="M 78.7,405.2 C 78,403.8 76.8,403.3 76.2,401.4 C 75.5,398.6 75.2,392.8 76,390.1 C 76.5,388.3 78.5,385.9 79.6,384.2 C 80.2,383.3 80.4,382 81.1,381.1 C 81.7,380.3 82.5,379.9 83,379.1 C 83.7,378.1 84.2,376.9 85,375.9 C 85.6,374.9 86.8,374.2 87.7,373.4 C 88.1,373 88.2,372.3 88.5,371.9 C 89.8,370 91.2,367.8 90.6,365.5 C 90.2,364.4 89.5,363.6 88.9,362.6 C 88.2,361.5 87.8,360.1 87,359.1 C 85.2,356.7 83,354.5 81.2,352 C 80.2,350.7 79.9,349.4 78.6,348.2 C 77.6,347.4 76.2,347.2 75.2,346.3 C 73.3,344.4 72.5,343.8 70.5,342.2 C 70,341.8 69.7,341.3 69.2,341 C 66.7,339.4 64.8,338.9 62.1,337 C 61.6,336.7 61.1,336.1 60.5,335.7 C 58.5,334.3 56.6,333.1 54.7,331.9 C 53.4,331.1 52.4,329.9 51.2,329.2 C 50.4,328.6 48.3,328 47.3,327.8 C 40.7,327 43.5,325.7 40.4,324.5 C 39.7,324.2 38.9,324.1 38.1,323.8 C 36.5,323.3 34.9,322.3 33.2,321.9 C 32.1,321.7 30.9,321.5 29.9,321.1 C 28.9,320.8 22.8,316.1 21.5,315.2 C 20.2,313.9 20.1,311.1 19.4,310.6 C 18.4,309.9 17.1,310.4 16.1,309.9 C 15.6,309.7 15.7,309.2 15.3,308.9 C 15,308.6 14.5,308.5 14.1,308.2 C 13,307.5 14.1,305.3 13.1,304.1 C 12.4,303.1 11,302.8 10.6,301.5 C 10,299.8 11.9,299.4 12.3,298.3 C 12.5,297.8 12.3,297.2 12.5,296.7 C 12.6,296.4 13,296.1 13,295.8 C 13.4,293.8 9.8,292.7 8.2,291.7 L 8.2,291.3 C 8.4,291.3 8.6,291.2 8.8,291.2 L 9.1,290.9 C 9,290.7 9.1,290.3 9.3,290.2 L 9.6,290.1 C 10,290.1 10.4,290.4 10.8,290.3 C 11.7,289.7 12.3,290.4 13.1,290.8 L 13.6,290.7 C 14.6,289.5 14.7,290.1 15.6,289.5 C 16.2,289.1 17.4,286.9 17.3,286.1 C 17.7,285.1 18.7,285.4 19,284.6 C 19.2,283.7 18.3,283 18.2,282.2 C 17.9,280.2 19.8,275 17.3,274 C 16.7,273.6 15.2,273.3 14.8,272.9 C 14.8,272 15.8,270.9 15.3,269.9 C 15.1,269.6 14.8,269.4 14.7,269.2 C 14.5,268.8 14.6,264.2 14.3,262.9 C 14,261.8 13.1,261.6 12.6,260.9 C 11.4,259.2 9.8,257.1 9.3,255 C 9.1,254.2 9.3,253.2 9.2,252.3 C 9.1,251.5 9,250.6 9.1,249.9 C 9.4,247.8 10.2,245.8 10.4,243.8 C 10.5,243 10.1,242.2 10,241.3 C 10,239.5 10.9,237.9 11.2,236.1 C 11.4,235.3 11.3,234.3 11.5,233.5 C 11.6,233 12,232.8 12.2,232.4 C 13.3,230.3 13.9,228.9 15.6,227.3 C 16.1,226.8 16.8,226.6 17,225.8 C 17.2,224.8 16,223.9 16,222.9 C 15.8,221.7 17,214.6 16.9,214.4 C 16.4,214.3 15.9,213.6 15.9,213.1 C 16.1,212.7 16.5,212.3 16.8,212 C 17.5,211.4 23.4,212.1 24.6,212.2 L 24.8,213.5"
         id="path20" />
      <path
         d="M 24.8,213.5 L 24.8,214.1 C 23.6,214 22.2,213.9 20.8,214.2 C 18.6,216.3 19.9,218.3 20.1,220.9 C 20.2,221.5 19.9,222.3 20.1,223 C 20.2,223.5 20.8,223.8 20.8,224.4 C 20.8,229.2 18.6,228.5 17.7,229.9 C 17.3,230.4 16.8,232.5 16.6,233.2 C 16.7,233.3 16.8,233.5 16.9,233.8 C 18.4,234 18.8,234.5 18.8,236.1 C 18.8,238.1 16.2,239.7 15.6,242.1 C 15,244.7 16.3,245.8 16.4,248 C 16.4,249.4 15.5,250.5 15.4,251.8 C 15.4,252.9 15.7,254.1 15.8,255.2 C 15.9,257.1 15.8,259.1 15.9,261 C 16,262.2 16.8,263.1 17,264.3 C 17.1,265.5 16.9,266.8 17.7,267.7 C 19.1,269.4 21.1,270 22.5,271.3 C 23.9,272.6 23.5,273.6 24.1,274.6 C 24.7,275.3 25.7,275.6 26.2,276.3 C 26.7,277.1 28.3,279.5 28.5,280.3 C 28.7,281 28.1,282 28.6,282.7 C 30.5,283.9 33.7,282.9 35.8,284.5 C 36.7,285.3 36.2,286.7 37.2,287.5 C 37.8,288 38.8,288.2 39.4,288.8 C 40,289.5 40.4,290.4 41.1,291.1 C 42.8,293 44.8,294.6 46,296.8 C 46.9,298.3 47,300.2 47.7,301.7 C 48.1,302.6 48.8,302.3 49.2,303 C 49.3,303.4 49.3,303.8 49.3,304.2 C 49.4,304.4 49.5,304.6 49.7,304.7 C 50.7,305 52.1,303.9 53,303.7 C 54,303.5 55,303.6 55.9,303.4 C 57.1,303.1 58.4,302.8 59.5,302.6 C 61,302.3 62.2,301.5 63.7,301.2 C 67,300.5 66.4,302.7 68,302.8 C 69.3,302.8 70.4,301.5 71.5,301.3 C 72.2,301.2 72.9,301.9 73.9,301.9 C 74.9,301.9 75.9,301.3 76.9,301.3 C 77.4,301.4 77.9,301.7 78.4,301.8 C 81,302 84.6,301.1 87.1,301.7 C 87.7,301.8 88.2,302.3 88.8,302.4 C 89.5,302.6 90.3,302.5 91,302.6 C 92,302.8 93.8,305.3 94.5,306.1 C 95,306.9 95,308 95.6,308.7 C 95.8,309.1 96.3,309.3 96.8,309.5 C 97.5,309.8 98.2,310 98.8,310.4 C 98.9,310.5 99,310.6 99.2,310.8 C 99.9,311.3 100.5,312 101.2,312.6 C 101.6,313 102.1,313.2 102.6,313.6 C 102.7,313.7 102.9,313.9 103.1,314 C 103.6,314.5 103.4,315.5 103.9,315.9 C 104.5,316.3 105.2,316.1 105.8,316.4 C 106.5,316.8 107.1,317.4 107.9,317.7 C 109.8,318.3 111.6,318.9 113.6,319.4 C 115.4,319.9 117.6,320 119.3,320.7 C 120.7,321.2 121.9,322.9 123.2,323.1 C 124.8,323.3 127.8,322.1 129.1,323 L 129.3,323.1 C 130.8,324.3 132.6,323.8 134,324.5 L 134,324.7 C 133,325.8 131.9,325.3 130.6,327.3 L 130.6,327.7 C 131.2,327.9 131.9,328 132.4,328.4 C 133,328.7 133.3,329.3 133.9,329.6 C 134.3,329.9 134.9,330 135.3,330.3 C 135.9,330.7 136.2,331.9 136.6,332.1 C 137.2,332.4 137.6,331.9 138.2,331.9 C 138.8,331.9 139.2,332.3 139.7,332.3 C 141.1,332.3 141.2,329.8 143.3,331.2 L 143.4,331.6 C 143.2,331.9 143,332.2 142.9,332.5 L 143.1,332.8 C 143.6,332.8 144,332.7 144.4,332.7 C 144.6,333 144.6,333.3 144.9,333.5 C 145.6,333.6 146.7,332.7 147.5,332.5 C 149.7,331.8 152.6,331.4 154.6,330.4 C 156.5,329.4 158.1,327.5 160.1,326.7 C 161,326.3 161.9,326.6 162.8,326.2 C 164.1,325.5 165.8,324.3 167.2,324.1 C 167.9,324 169,324.3 169.8,324.1 C 170.5,324 171.1,323.5 171.8,323.3 C 173.7,322.9 174.2,323.7 175.8,323.7 C 176.7,323.7 177.4,323.4 178.3,323.7 C 179.2,324 181.5,325.3 182.1,325.3 C 182.6,325.3 182.9,325 183.3,325.1 C 184,325.2 184.6,325.4 185.5,325.4 C 189.3,325 191.1,324.6 193.9,327.6 C 194.3,328 195.1,328.1 195,328.9 L 195.2,329.1 C 196.3,329.3 195.8,330.2 196,331 C 196.2,331.1 196.5,331.2 196.8,331.2 C 197.1,331.4 197.3,331.6 197.5,331.9 C 200.9,332.4 203.8,329.5 208.8,330.8 C 209.3,330.9 210.3,331.3 210.1,332 C 209.9,332.4 210,332.8 210.3,333 C 211.9,333.1 214.1,332.9 215,334.6 C 215.1,335.2 214.7,335.7 214.7,336.2 L 214.9,336.5 L 215.3,336.6 C 216,336.1 216.4,335.5 217,335 C 218.7,333.5 221.3,333.4 223.3,332.5 C 225.6,331.5 227.5,329.7 229.8,328.8 C 230.9,328.4 232.7,328.8 233.4,328.3 C 234.1,328 234.5,327.2 235.2,326.8 C 236.7,325.9 238.7,325.4 240.4,324.7 C 243.3,323.5 245.9,321.5 248.9,320.3 C 249.3,320.2 249.9,320.1 250.3,319.8 C 251.2,319.2 251.6,318.8 252.6,318.4 C 255,317.5 252,314.1 250.9,314.6 C 250.9,314.9 251,315.4 250.8,315.7 C 250.1,315.5 250,315.1 249.6,314.5 C 249.6,314.3 249.7,314 249.8,313.7 C 250.5,313.1 252.8,312.1 253.2,311.6 C 253.3,311.4 253.3,311.1 253.3,310.9 C 252.7,310.2 251.5,310 250.9,309.5 L 250.8,309.2 C 252.1,308.6 252.8,310 253.7,310.3 C 254.6,310.2 254.7,309.9 255.5,310.5 C 255.6,310.7 255.7,310.9 255.7,311.1 L 255.6,311.5 C 254.1,312.9 255.3,314.4 256,315.9 L 255.9,316.1 C 255.4,316.2 254.8,316.7 254.7,317.2 L 254.7,317.6 L 255.1,317.7 C 257.2,316.5 260.9,316.9 261.3,316.1 C 261.7,315.5 261.1,315 261.2,314.3 C 261.3,313.9 270.1,305.2 270.8,304.7 C 273,303.2 275.1,301.7 277.4,300.5 C 278.6,299.8 283.8,298.2 283.1,296.4 C 281.4,294.5 282.3,294.5 282.9,292.6 C 283.2,291.6 283.1,290.5 283.5,289.5 C 284,288.4 285,287.4 285.6,286.3 C 285.8,285.9 286,285.6 286.2,285.3 C 286.4,284.9 286.9,284.5 287.2,284.2 C 288.3,283.2 289.6,282.6 290.6,281.5 C 291.6,280.5 292.1,279.1 293.3,278.2 C 294,277.6 295.4,277.2 295.9,276.5 C 296.6,275.6 296.3,274 296.5,272.9 C 296.6,271.8 297.4,270.8 297.7,269.8 C 298.1,268.4 297.9,266.9 298.2,265.5 C 298.4,263.4 300.1,260.1 301.4,258.5 C 303.9,255.9 306.3,254.6 309.2,252.7 C 312,250.8 314.4,248.3 316.8,245.7 C 317.3,245.2 321.5,240.8 321.8,240.6 C 322.7,240 323.5,239.5 324.3,238.9 C 325.5,238 326.3,236.7 327.4,235.8 C 328,235.3 328.9,234.9 329.4,234.4 C 331.1,233.3 332.4,231.7 333.6,230.3 C 334.3,229.6 335.1,229.3 335.7,228.7 C 337,227.6 338.1,226.4 339.1,225.2 C 339.8,224.5 340.9,224 341.5,223.3 C 342.4,222.3 342.6,220.8 343.4,219.7 C 344.5,217.9 346.3,216.7 347.5,214.9 C 348.1,213.9 348.2,212.6 348.7,211.6 C 349.5,210 351.2,207.6 351.6,206.1 C 352,204.6 352.3,203.3 353.1,202 C 353.5,201.4 354.1,201 354.3,200.4 C 354.6,199.7 354.8,198.9 355.2,198.4"
         id="path22" />
    </g>
    <g
       style="fill:#c6ecff;stroke:#0978ab;stroke-width:1;stroke-linejoin:round;"
       id="Seen2">
      <path
         d="M 108.4,200.9 C 108.3,200.3 108.4,199.7 108.2,199.1 C 108.4,198.1 109.7,197.9 109.5,196.6 C 109.3,195.5 106.6,191.8 107.6,190.9 L 107.9,190.7 L 108.2,190.8 L 108.5,191 C 108.6,191.4 108.5,191.8 108.6,192.1 C 109.2,193 110.5,194.1 111,194.9 C 111.3,195.4 111.3,196.2 111.7,196.6 C 112,196.7 112.4,196.7 112.6,196.5 C 114.2,193.9 111.3,190.9 113.3,190.5 L 113.7,190.7 C 115.5,192.8 113.8,194.5 114.9,195.5 L 115.3,195.4 C 115.8,194.7 115.6,193.3 116.1,192.8 C 116.5,192.4 117.5,192.3 117.9,192 C 119.3,191 117.8,188.3 117.6,187.1 C 117.9,186.5 118.9,186.1 119.4,185.5 C 120,184.8 120,183.7 120.9,183.3 L 121.3,183.4 C 123.1,184.3 119.7,186.1 119.4,186.7 C 118.8,187.8 120.2,189.7 119.7,191.4 C 119.4,192.5 117.5,195.9 118.4,196.7 L 118.8,196.8 C 119.7,196.5 120.7,194 122.1,193.7 C 123.3,193.4 123.8,194.6 124.7,194.8 C 126.3,195.2 127.9,194.5 129.4,195.2 C 130.1,195.5 130,197.1 131,197.2 L 131.3,197 C 131.9,195.9 131.7,194.9 132.5,193.5 C 132.7,192.6 131.3,191.7 131.3,190.7 C 131.4,189.7 131.9,188.7 132.3,187.8 C 132.8,186.8 132.8,185.5 133.2,184.4 C 133.9,182.5 135.1,182.2 136,180.1 L 136.2,179.9 L 136.5,179.9 C 137.4,180.8 137.2,183.4 136.6,184.3 C 136.3,185 135.9,184.8 135.4,185.9 C 135.2,186.7 135.2,187.4 134.8,188.2 C 134.1,188.3 133.3,189.9 133.7,190.6 C 133.8,190.7 134.1,190.8 134.4,190.8 C 135.5,190.4 135.7,188.3 137.2,188.8 C 137.5,189.1 137.2,189.6 137.2,189.9 C 137.3,190.7 137.9,191.2 137.8,192 C 137.8,192.4 137.4,193 137.7,193.5 L 138,193.6 C 138.3,193.5 138.5,193.4 138.7,193.3 C 139.6,191.1 138.6,189.4 139.4,188.7 L 139.9,188.7 C 140.1,189 140.2,189.4 140.5,189.5 L 140.9,189.5 C 141,189.3 141.2,189.2 141.4,189.1 L 141.7,189.2 L 141.9,189.5 C 141.6,189.7 141.5,190.1 141.3,190.4 C 141.4,190.6 141.5,190.8 141.6,191 L 142.1,191 C 142.7,190.5 143.1,190.7 143.4,189.6 C 143.2,189.1 143.1,188.8 143.1,188.2 C 143.4,187.7 144.3,186.8 144.3,186.5 C 144.4,186.1 144.2,185.8 144.3,185.3 L 144.6,185.2 L 145.1,185.3 C 145.5,185.7 145.6,186.2 145.7,186.8 L 146,186.7 C 146.4,186.4 146.1,185.6 146.4,185.1 C 146.9,184.7 147.3,184.6 147.9,184.3 C 147.9,184.1 147.8,183.7 147.7,183.6 C 147.4,183.5 147.2,183.4 147,183.3 C 146.7,183.1 146.7,181.8 146.7,181.4 L 146.9,181.1 C 147.6,181.1 149.7,183.6 149.6,184.2 C 149.9,184.4 150.1,184.7 150.4,184.9 L 150.7,184.8 C 151.1,184.3 151.1,183.6 151.6,183.3 C 151.8,183 152.1,183 152.3,182.7 L 152.3,182.3 C 151.8,181.8 150,179.6 151.6,179.2 L 151.9,179.3 C 152.3,179.6 152.4,180.1 152.9,180.2 L 153.3,180.1 L 153.5,179.9 C 153.5,179.5 153.6,178.5 153.7,178.3 L 154,178.1 L 154.4,178.2 L 154.8,178.6 C 155.1,180.2 153.9,179.6 155.2,182.1 L 155.6,182.2 L 155.9,182.1 C 157.2,180.2 155.9,177 157.3,175.9 L 157.6,175.9 C 158,176.3 157.5,176.9 157.5,177.3 C 157.9,178.6 160.1,178.2 160.8,177.3 C 161.2,177.1 161.5,177 161.9,177.2 C 162.5,177.5 162.1,178.5 162.5,178.8 C 162.8,179.1 163.6,179 164.1,179.2 L 164.2,179.5 C 164.1,179.8 164,180 163.9,180.2 L 164,180.5 C 166.1,182.4 166.1,179.8 166.5,179.1 C 166.7,178.8 166.9,178.7 167,178.3 C 166,177.3 166.6,176.5 166.3,175.9 C 165.9,175.4 164.9,175.3 164.8,174.6 C 164.9,174 165.3,173.8 165.2,173.2 C 164.9,172.9 164.9,172.6 164.7,172.3 L 164.9,172.1 L 165.2,172.1 C 166.1,172.3 166.9,174.9 168.1,173.2 L 168.5,173.2 L 168.8,173.4 L 168.9,174.1 C 169.6,174.8 170.7,174.1 171.1,174.5 C 171.5,175 171.3,175.4 171.3,176 L 171.5,176.3 C 171.6,176.4 172,176.4 172.1,176.2 C 174,174 171.6,171.9 170.9,169.6 C 171,169.4 171.2,169.2 171.4,169.1 C 172.5,168.9 173.6,170.3 174.4,170.7 C 175.7,171.2 176.1,170.5 176.7,170.5 C 177.1,170.6 177.4,171 177.6,171.4 L 177.6,171.7 C 177.4,171.8 177.1,171.9 176.8,171.8 L 176.7,172.1 C 176.6,172.3 176.6,172.6 176.7,172.8 C 177.4,173.6 179.1,173.2 179.9,173.3 C 180.6,173.3 181.6,174.1 182.2,173.4 C 182.8,172.7 183,169.2 183.6,168.3 C 184.7,167 186.7,168.2 186.8,169.6 C 186.3,169.5 185.8,169.3 185.3,169.5 C 185,169.7 184,172 184.1,172.4 C 184.3,172.8 185.4,173.1 185.6,173.8 C 186.1,176 182.2,174.9 181.4,175 C 180.9,175 180.5,175.6 179.8,175.6 C 179.5,175.6 176,173.4 175.3,175.7 C 175.4,176.2 176.7,177 176.8,177.8 L 176.8,178.1 L 176.5,178.3 C 175.9,178.3 174.9,177.7 174.1,177.6 C 173.4,177.6 172.8,178.1 171.8,177.9 C 171.3,177.9 171,177.5 170.6,177.3 C 170.5,176.6 170.2,175.9 169.6,175.6 C 169.3,175.6 169,175.6 168.7,175.6 L 168.5,175.9 C 168.7,176.5 168.8,178 169.1,178.4 C 169.4,178.9 170,178.8 170.3,179.6 C 169.7,179.9 169,179.3 168.5,179.1 L 168.2,179.3 L 168.1,179.6 C 168.7,179.9 168.8,180.6 169.3,181.1 C 170.8,181.1 170.7,183.7 170.9,184.8 C 171.1,185.4 171.7,186 171.6,186.7 L 171.2,186.8 C 170.8,186.6 170.5,185.8 170.5,185.4 C 170,185 169.3,184.9 168.8,184.7 C 168.3,184.2 168.2,182.4 168.2,181.8 C 168,181.6 167.8,181.5 167.6,181.4 C 166.9,181.8 166.1,182.5 165.8,183.3 C 165.9,183.9 167.2,185.5 167.5,186.1 C 168.1,187 168.1,188.3 168.3,189.4 C 168.4,189.9 168.6,190.4 168.5,191 L 168.3,191.3 C 165.5,191.4 166.7,189.5 166.3,187.6 C 166.2,187 164,184.9 163.4,185.1 L 163.1,185.3 C 163,185.6 163,186.1 162.7,186.3 L 162.4,186.2 C 162.3,185.6 162.4,185.2 162.4,184.6 C 162.1,184.2 162,183.7 162,183.2 L 161.8,183 C 161.4,182.8 161,182.8 160.7,182.9 C 160.5,183 160.4,183.3 160.3,183.5 L 160.4,183.9 C 160.7,184 161,184.3 161.1,184.6 L 160.9,184.9 C 160.4,185.2 159.2,184.7 158.9,185.7 C 159,186.2 159.7,186.7 160,187.4 L 160.3,187.6 C 160.9,187.7 161.9,188 161.7,188.9 C 161.4,189.3 161.1,189.4 160.7,189.7 C 160.8,190.5 161.5,191.1 161.5,191.9 C 161.2,192.2 160.4,192 160,192.1 C 159.9,192.3 159.8,192.6 159.8,192.9 L 159.5,193.1 C 159.3,193.2 159,193.2 158.7,193.1 C 158.1,192.4 158.6,191.1 158.3,190.6 L 158.1,190.4 C 156.9,190.4 157.4,192.1 156.7,192.7 L 156.3,192.8 C 156.1,192.7 155.9,192.6 155.7,192.4 L 155.7,192 C 155.9,191.7 156,191.3 156,191 C 155.8,190.9 153.9,190.7 153.7,190.7 C 153.5,190.9 153.4,191.1 153.3,191.3 C 153.2,191.7 153.7,192.1 153.7,192.6 C 153.6,192.8 153.4,193 153.2,193 L 152.8,193 C 152.4,192.5 151.1,190.6 150.8,190.5 C 150.5,190.4 150.2,190.3 150,190.4 C 149.9,190.7 149.9,191 149.9,191.2 L 149.7,191.5 C 149.1,191.4 147.8,190.2 146.7,190.1 C 144.7,190.1 145.8,192.5 146.6,193.3 L 146.6,193.6 L 146.4,193.9 C 146,193.9 145.7,193.7 145.5,193.5 L 145,193.6 C 144.5,194.2 144.1,196.9 145.2,197.3 C 145.6,197.4 145.9,197.3 146.3,197.5 C 147.9,198.2 147.9,198.7 150,199.3 C 150.2,199.4 150.7,199.6 150.8,199.7 C 151.5,200.3 151.5,201.4 152.5,201.7 C 152.8,201.6 153.2,201.4 153.5,201.4 C 154,201.5 155.5,202.6 155.7,203 L 155.6,203.2 C 155,203.3 154.7,203.2 154.1,203 C 153.9,203.1 153.7,203.2 153.5,203.3 C 153.1,203.3 152.9,202.9 152.5,202.8 C 151.8,202.5 151,202.8 150.3,202.4 C 149.8,202.1 149.6,201.7 149.1,201.6 C 148.7,201.5 148.4,201.7 148,201.8 C 147.8,201.8 145.8,201 145.6,200.9 C 145,200.6 144.7,199.9 144.2,199.8 C 143.9,199.9 143.7,200.2 143.6,200.5 C 143,202.3 145.6,202.6 145.9,204 L 145.8,204.4 C 144.7,205.9 143.5,203.5 142.9,202.9 L 142.5,202.8 C 141.8,203.8 143,204.7 143.6,205.4 L 143.5,205.6 C 142.4,205.8 140.4,202.8 140.4,201.9 C 140.4,201 142,200.7 141.3,199.3 L 141.1,199.1 L 140.7,199.2 L 140.5,199.5 L 140.1,199.6 C 139.4,199.3 139.6,198.5 139.2,197.9 C 138.7,197.1 138,196.9 137.4,196 C 136.3,195.7 136.2,196.9 135.5,197.1 C 134.6,197 134,196.9 133.2,196.5 C 132.9,196.6 132.5,196.7 132.3,196.9 L 132.2,197.3 C 132.3,197.6 132.3,198.1 132.2,198.4 C 131,199.7 129.3,196.6 128.5,195.9 C 127.7,195.7 125.2,196.6 124,196.7 C 123,196.7 122.3,196 121.7,196 C 121.1,196.1 120.4,197.2 120.2,197.7 C 120.8,198.5 121.6,199.5 120.9,200.7 L 120.7,200.7 C 120.3,200.4 120.1,199.3 119.7,199 C 119,198.2 114.9,196.4 114.2,197.3 L 114.1,197.6 C 114.5,197.6 114.9,197.6 115.3,197.8 L 115.5,198.1 C 114.5,199.3 112.6,198.1 111.5,198.3 C 110.7,198.5 108.2,199.8 108.4,200.9 L 108.4,200.9 z"
         id="path25" />
      <path
         d="M 318.7,239.6 L 318.8,239.2 C 319,239 319.4,239 319.6,239.1 L 319.9,238.9 C 319.7,238.5 319.6,238.2 319.5,237.8 C 319.8,237 320.3,237.3 320.7,236.8 C 320.7,236.3 320.6,235.6 320.8,235.1 C 321.2,234.4 322,234.3 322.4,233.8 C 322.6,233.5 322.6,233.1 322.8,232.8 C 323.1,232.2 323.7,232.2 324.1,231.9 C 324.6,231.5 324.6,230.8 324.9,230.3 C 325.1,229.7 326,229.6 326.1,228.7 C 326.2,228.2 325.9,227.7 325.9,227.2 C 326.3,226.4 327.4,225.9 327.9,225.1 C 328.4,224.3 328.5,223.2 329.1,222.4 C 329.7,221.5 330.8,220.7 331.4,219.7 C 332,218.8 332,217.9 332.8,217 C 333.6,216.2 334.7,215.8 335.5,215 C 336.3,214 336.7,212.6 337.5,211.4 C 337.6,211.2 337.8,211 338,210.8 C 338.6,210.3 339.3,209.8 339.8,209.2 C 340.4,208.6 340.7,207.7 341.4,207 C 341.8,206.5 342.5,206.4 343,205.9 C 344.3,204.9 342.7,204.1 343.6,203 C 343.9,202.5 344.5,202.2 344.7,201.7 C 344.9,201.4 344.9,201 345.1,200.6 C 345.2,200.5 345.2,200.3 345.4,200.2 C 345.9,199.7 346.8,199.7 347.2,199.2 C 347.3,198.4 346.6,197 346.8,196.4 C 347.4,196.1 348.1,196.2 348.5,195.8 L 348.5,195.4 C 348.2,195 347.7,194.9 347.5,194.6 L 347.5,194.4 C 347.8,194.3 348.1,194.2 348.4,194 L 348.5,193.7 L 348.1,193.5 L 348.1,193.3 L 348.6,192.8 L 349.4,192.6 C 350.2,192.8 350.9,193.4 351.7,193.5 L 352,193.8 L 351.9,194.1 C 351.5,194.7 351,194.8 350.8,195.7 C 350.5,196.9 351.7,199.8 350.7,200.7 C 350.3,201.1 349.7,200.9 349.3,201.2 C 349.1,201.7 348.5,201.8 348.1,201.7 L 347.8,201.8 C 347.2,203 348.1,208.8 346.9,210 L 346.6,210.1 L 346.2,210 C 346.1,209.7 346.1,209.5 346,209.3 L 345.6,209.3 C 345,210.1 345.6,211.1 345.3,211.9 C 345,212.8 344.4,212.9 344.3,214.1 C 344,214.5 343.6,214.7 343.1,214.5 L 342.8,214.6 C 342.8,215.3 342.9,216.3 342.5,216.9 C 342.1,217.2 341.6,217 341.1,216.9 L 340.8,217.1 C 340.6,219.2 338.4,219.8 337.3,221.5 C 337,222 336.9,222.6 336.6,223.1 C 335.3,225.7 334,226 332.1,227.7 C 331.3,228.3 330.7,230.5 330.1,231.4 C 329.9,231.7 327.3,234.4 326.9,234.7 C 326.4,235 326,235.1 325.6,235.6 C 324.6,236.5 324,237.7 323.2,238.7 C 322.6,239.2 321.9,239.7 321.2,240 C 320.5,240.3 319.1,240.4 318.7,239.6 L 318.7,239.6 z"
         id="path27" />
      <path
         d="M 294.5,230.3 C 294.1,229.5 292.4,229.8 292.5,228.1 C 292.6,226.7 295,225.5 294.2,224.1 C 293.7,223.7 292.5,223.9 291.9,223.5 C 291.2,223.2 289.5,219.9 289.5,219.1 C 289.4,218.7 289.6,218.3 289.7,217.9 C 290.1,217.6 290.8,217.6 291.2,217.9 L 291.5,217.8 C 292.4,216.4 290.1,214.5 290.5,213.4 L 290.9,213.3 C 291,213.4 291.3,213.6 291.5,213.5 L 291.7,213.3 C 292,211.8 290.7,210.1 291.6,209.4 C 291.9,209.4 292.3,209.4 292.6,209.6 C 293.1,210.2 292.1,211.6 292.8,212.2 L 293.2,212.2 C 293.8,211.3 294.2,210.2 294.9,209.2 C 295.4,208.3 296.4,207.7 297.1,206.9 C 298.7,205.1 297.1,203 302.4,203 C 303.9,203 306.6,203.5 307.7,203.2 L 308,203 L 308,202.6 C 307.7,202.2 307,202.5 306.5,202.4 L 306.4,202.1 C 306.2,200.9 308.5,200.2 309.2,199.5 L 309,199.2 C 308.6,199.2 308.1,199.1 307.9,198.8 L 308.1,198.4 C 308.6,197.8 309.6,198.3 310.2,197.3 C 310.7,196.4 309.9,192.3 309,191.5 C 308.2,190.9 307.4,191.1 306.5,190.7 C 306.4,190.5 306.3,190.3 306.3,190 C 306.8,189.3 309.2,190.6 310.3,190.4 C 311.9,190.2 313,188.7 314.3,188.1 C 315,187.8 315.6,187.9 316.3,187.7 L 316.5,187.5 C 316.6,187.3 316.6,187 316.5,186.7 C 316.3,186.3 316.5,185.1 316.6,184.6 C 317.7,181.2 320,183.2 321.8,182.5 C 322.7,180.7 325.7,181.2 326.6,179.2 C 327.9,176.9 325.4,174 328.7,171.6 C 331.6,169.5 336.6,169.9 338.9,166.9 C 341.4,163.7 336.7,164.6 336.2,163.6 C 335.8,162.5 337.3,161.4 337.8,160.6 C 338,160.2 337.9,159.9 338.1,159.5 C 339.8,158.8 338.2,156.4 341.1,156.5 C 342.1,156.1 341.8,154.6 342.1,153.8 C 342.6,153.4 343.7,154.1 344,153.1 C 345.6,152.6 344.7,152.6 345.6,152 L 346.1,152 C 346.4,152.7 342.9,160 343.2,162.2 C 343.4,163.4 345,166 345.9,166.8 C 346.7,167.4 347.7,167.7 348.2,168.6 C 348.9,169.6 349.3,170.9 349.7,172 C 349.9,172.7 350.2,173.1 350.2,173.8 C 350.2,174.8 350,175.7 349.9,176.7 C 349.8,177.9 350,179 349.7,180.1 C 349.4,181.2 348.8,182.1 348.5,183.2 C 348,184.6 346.9,186.7 345.9,187.9 C 345.4,188.6 344.8,189.2 344.4,189.9 C 343.6,191.2 343.5,193.1 343,194.5 C 341.6,198 337.7,203.5 333.1,201.5 C 330.8,200.4 328.5,195.8 326.7,194.1 C 326.3,192.6 327.3,192 327.7,190.7 L 327.6,190.4 L 327.2,190.2 C 326.3,190.1 323.3,196.3 321.5,195 C 321,194.6 321,194 320.7,193.5 C 320.5,193.3 320.2,193.3 320.1,193.3 C 319.1,193.8 317.9,198.7 317.8,199.9 C 317.7,201.2 317.9,202.7 317.7,203.9 C 317.2,206.2 315.9,207.4 314.7,209.3 C 314.5,209.7 314.5,210.2 314.2,210.7 C 313.8,211.6 310.7,214 309.4,213.4 C 308.5,213 308.8,211.2 308.4,210.7 C 307.7,210.7 306.7,213.8 306.3,214.5 C 304.7,217 303.3,216 302.6,216.7 C 302.3,217 302.3,217.6 302.1,218.1 C 301.7,219.5 300.8,220.9 300.4,221.9 C 300.2,222.5 299.8,224.1 299.8,224.6 C 299.8,225.9 300.7,227.5 301,228.8 C 301.2,229.7 300.9,230.4 301,231.2 C 301.1,231.7 302,232.9 302.1,234 C 302.3,235.3 301.6,236.4 301.6,237.6 C 301.6,238.8 301.8,240 300.9,240.9 C 300.8,241.7 300.8,244 299.2,243.1 L 299,242.8 C 299.1,242.6 299.3,242.5 299.5,242.4 C 299.6,242.2 299.7,241.9 299.6,241.7 L 299.3,241.4 C 297.5,240.9 298,245.4 296.3,245.6 C 295.5,245 296.2,241.6 296,241 C 295.2,238.9 293.1,237.9 293.1,235.3 C 293.1,233.5 294.5,230.3 294.5,230.3 L 294.5,230.3 z"
         id="path29" />
      <path
         d="M 286.7,280.1 C 286.5,279.8 286.6,279.2 286.6,278.8 C 286.3,278.3 285.1,278.3 284.8,277.4 C 284.3,276.2 285.3,276 285.4,275 C 285.4,274.3 285,273.7 285.1,273.1 C 285.2,271.8 288.8,270.3 289.9,270.5 C 290.7,270.7 290.8,271.3 291.3,271.6 C 292.6,271.6 292.9,271.5 293.9,272.5 C 294,274.4 288.5,281 286.7,280.1 L 286.7,280.1 z"
         id="path31" />
      <path
         d="M 273.2,296.9 C 272.8,296.6 272.7,296 272.7,295.5 C 272.8,295.2 273.1,295 273.3,294.7 L 273.3,294.4 C 271.6,292.9 271.5,288 274,289 C 274.5,289.2 275.7,290.6 276.1,291.1 C 276.5,291.6 277.1,292 277.4,292.6 L 277.3,293 C 277.1,293.3 276.7,293.4 276.5,293.6 C 276.5,293.8 276.6,294.1 276.7,294.2 C 277.1,294.3 278.2,294.7 278.4,294.9 L 278.6,295.3 L 278.4,295.6 C 277.9,296.1 277.7,296.3 276.8,296.2 C 276.4,296.7 276.2,297.6 275.4,297.6 C 275.1,297.4 274.9,297.1 274.9,296.7 L 274.7,296.5 C 273.9,296.8 274,296.9 273.2,296.9 L 273.2,296.9 z"
         id="path33" />
    </g>
    <g
       style="fill:none;stroke:#646464;stroke-width:0.5;stroke-miterlimit:4;stroke-opacity:1;"
       id="g35">
      <path
         d="M 146.3,92.7 C 145.2,91.9 144.1,90.4 144.8,89 C 145.1,88.2 145.5,87.6 146.4,87.6 C 148.3,87.1 150.2,86.6 152,86 C 152.8,83.6 153.9,81.2 154.5,78.7 C 154.5,78.2 154.1,77.8 154,77.4 C 151.7,74.6 148.9,72.4 146.5,69.7 C 144.6,67.8 141.7,68 139.2,67.4 C 136.7,66.9 134.2,66.1 131.8,65.1 C 130.1,64.6 128.6,66.1 128,67.5 C 127.6,68.6 126.7,69.5 125.5,69.8 C 124.3,70.5 123.4,71.8 122,72 C 120.5,72.2 119.1,72.8 118,73.8 C 117,74.6 116.1,75.5 115,76.1 C 112.9,76.4 110.7,75.8 108.7,76.9 C 107.5,76.7 106.6,75.4 105.2,75.7 C 102.3,75.8 99.4,75.7 96.5,76 C 95.5,76.6 94.7,77.7 93.6,78.1 C 91.2,77.5 88.9,76.6 86.6,75.9 C 85.4,74 83.7,72.6 81.9,71.5 C 81,71.2 79.9,71.5 79.1,70.9 C 77.4,69.8 75.3,69.1 73.5,67.9 C 71.6,67.3 70,66 68.3,64.9 C 66.4,64 63.9,65.2 62.2,63.6 C 61.1,62.6 60.5,61 59.1,60.3 C 57.4,59.2 55.9,57.7 53.9,56.9 C 53.6,56.8 53.2,56.9 52.9,56.9 M 37.4,106.5 C 38.2,105.4 38.4,105.6 39.9,106.2 C 40.5,106.4 41.2,107.4 41.6,106.6 C 42.8,105.1 44.7,103.9 46.7,104.6 C 48.2,105.1 49.7,105.8 50.9,106.8 C 52.3,107.7 52.8,109.3 53.2,110.7 C 53.8,112.1 55.7,111.9 56.9,112.2 C 59.8,112.6 62.9,112.8 65.4,114.4 C 67.3,115.4 69,116.8 70.8,117.8 C 72.2,117.9 73.7,117.7 75,118 C 76.4,118.8 76.6,120.5 78.1,121.2 C 79.9,122.4 82.2,122.7 84.4,123.3 C 85.6,123.9 86.5,125.3 88,125.3 C 90.4,125.6 92.8,125.8 95.1,126.2 C 96,126 96.3,124.9 97.3,125.1 C 99.7,125.3 102.2,126.3 104.6,125.4 C 106.1,124.9 107.9,124.5 109.4,125.3 C 110.3,125.8 110.9,126.8 112,126.6 C 113.5,126.6 115,126.5 116.2,127.4 C 117.5,128.6 119.3,128.5 120.9,128.7 C 122.3,128.9 123.7,129.3 125,129.7 C 126.4,129.9 128.3,130.2 129.3,129.1 C 130,128.5 129.5,127.3 130.5,126.8 C 131.4,126.3 132.4,125.7 132.5,124.5 C 132.8,123.2 134,122.3 135.4,122.4 C 135.9,122.3 137.1,122.6 137,121.7"
         id="path37" />
      <path
         d="M 150.3,89.7 C 148.7,89.7 147.5,90.9 146.8,92.1 C 146.2,93.2 145.7,94.4 145.2,95.5 C 145.5,96.5 145.8,98 144.7,98.6 C 143.8,99.3 143.4,100.7 142.2,100.9 C 141.1,101.4 140.1,102.2 139.9,103.4 C 139.6,104.4 138.9,105 137.9,105.4 C 137.1,105.6 136.8,106.5 136.9,107.3 C 136.9,108.1 137.2,109.1 136.4,109.7 C 135.6,110.5 134.6,111.6 135.3,112.7 C 135.9,113.4 136.5,114.1 136.4,115 C 136.7,117.5 136.9,120 137.4,122.5 C 138,122.9 138.8,123.2 139.1,124 C 139.9,125.7 139.5,127.7 139.8,129.4 C 140.6,130.2 141.8,130.8 141.7,132.1 C 141.6,132.6 142.1,133.6 141.3,133.7 C 140.4,133.9 139.6,134.4 139.2,135.1 C 138.9,137.5 139,140 138.5,142.4 C 137.4,144.6 136.4,146.9 136.1,149.4 C 135.7,151.1 135.5,152.8 135,154.3 C 133.6,156.5 131.6,158.1 129.3,159.5 C 127.8,160.2 127.3,161.8 126.4,163.1 C 124.6,165.9 123.9,169.3 123.4,172.5 C 123.3,176.1 122.2,179.5 121.3,183 C 120.5,184.3 119.5,185.5 118.8,186.8 C 118.8,188.2 119.6,189.8 118.8,191.1 C 118.3,192.5 117.6,193.8 117.3,195.2 C 117.8,196 118.8,196.3 119.6,196.9 C 120.5,196 121.5,195.1 122.4,194.2 C 124.7,194.5 127.1,194.5 129.3,195.1 C 129.9,195.5 130.4,196 131,196.4 C 132.5,195.1 134.4,194.5 136.4,193.9 C 138.7,193.1 141,192.5 143.3,191.7 C 145.1,190.1 146.8,188.2 148.7,186.8 C 152.7,184.9 156.7,182.9 160.7,181.1 C 162.6,180.8 164.6,180.6 166.5,180.2 C 167.4,178.2 168,176 168.9,174.1 C 169.9,174.1 171.1,173.9 171.7,174.9 C 172.1,175.3 172.7,175.8 173.1,175.2 C 174.3,174.5 175.3,173.5 176.5,172.8 C 178.8,172.9 181,172.9 183.3,173 C 184,171.3 184.4,169.4 185.3,167.9 C 186.1,168 187.1,168 187.9,168.5 C 187.9,169.7 189.4,170.1 190.4,170.4 C 191,170.7 191.6,171 191.8,171.6 C 192.3,172.4 193.4,172.2 194.1,171.8 C 196,171 198,170.4 199.8,169.5 C 201.4,169 202.7,170.2 204.2,170.5 C 205.3,170.9 206.4,171.6 207.6,171.1 C 208.8,170.8 210.4,171 211.3,169.9 C 212.8,168.8 214.4,167.4 214.9,165.6 C 215.6,164.7 216.7,164.5 217.6,164.4 C 218.5,163.8 218.8,162.6 219.6,162 C 220.3,161.3 221.7,161.6 222.1,160.6 C 223,158.9 224,157.3 224.7,155.6 C 225,154.8 224.8,153.9 224.5,153.2 C 224,151.8 225.5,150.8 226.2,149.7 C 227,149 227.3,148 227.4,147 C 227.5,146.2 228.6,146 229.2,146.5 C 230.1,147 231.2,147.9 232.3,147.2 C 232.7,146.3 232.1,145.3 231.7,144.5 C 231,143.4 229.9,142.4 229,141.4 C 228,140.3 227.2,139 226.1,137.9 C 225.8,137.1 225.1,136.6 224.8,135.8 C 224.2,134.8 223.4,133.8 222.3,133.3 C 221.8,132.9 221,132.7 220.9,132 C 219.9,129.9 217.2,129.3 215,129 C 213.1,128.9 211.1,128.8 209.3,127.8 C 208.4,127.3 207.3,127 206.1,127 C 203.4,126.8 200.6,127.2 198,126.7 C 195,125.4 191.6,125.2 188.4,125.6 C 186.9,125.8 185.4,126.5 183.8,126.1 C 182.4,126.1 181.2,124.9 179.8,125.5 C 179,126 178,125.8 177.5,125.1 C 176.5,124 175.7,122.7 175.9,121.2 C 175.8,118.2 176.2,115.1 175.4,112.2 C 175.2,110.9 173.8,110.1 172.5,109.7 C 170.9,109.3 169.2,108.4 168.2,107 C 167.7,106.2 167.2,105.4 167.1,104.4 C 166.5,102.2 167,99.4 165.2,97.6 C 163.6,96.6 161.7,95.7 159.9,95.1 C 158.1,94.2 156.4,93.2 154.8,92 C 153.4,91 152.1,89.6 150.3,89.7 L 150.3,89.7 z"
         id="path39" />
      <path
         d="M 243.9,119.1 C 242.9,119.5 243.1,120.2 242.7,121.1 C 242.2,122.4 242.1,124.1 243,125.3 C 243.8,126.3 243.4,127.5 242.8,128.5 C 241.4,131.7 240.4,135 238.5,137.9 C 238.3,138.7 239.4,138.6 239.9,138.7 C 241.1,139 241,140.7 240.4,141.5 C 239.8,142.1 238.5,142.6 238.7,143.6 C 239.1,144.7 239,146 238,146.7 C 236.4,147.3 234.6,147.1 233,147.4 C 232.2,147.5 231.5,148 230.7,147.6 C 229.8,147.3 229.2,146.5 228.3,146.4 C 227.1,147 227.8,148.7 226.8,149.4 C 226,150.4 225,151.3 224.6,152.6 C 224.6,153.5 225.4,154.2 225.1,155.1 C 225,156.3 224.2,157.4 223.6,158.5 C 222.8,159.1 222.8,160.3 222.1,161 C 221.7,161.5 221.2,161.6 220.6,161.7 C 219.4,162.2 218.8,163.3 218.2,164.3 C 217.4,165.1 216,164.6 215.3,165.5 C 214.6,167.2 213.6,168.7 212,169.7 C 211,170.5 210,171.1 208.7,171.2 C 207.5,171.3 206.3,171.9 205.2,171.1 C 203.5,170.7 201.9,169.6 200,169.7 C 198.8,170 197.7,170.9 196.4,171.2 C 195.8,171.2 195.2,171.7 195.5,172.3 C 196.1,174.2 196,176.2 195.5,178.1 C 194.9,180.1 194.3,182.1 194.1,184.2 C 194.6,185.4 195.4,186.5 195.8,187.7 C 195.9,188.5 195.2,188.9 194.5,189.2 C 193.9,189.5 193.5,190.3 194,190.9 C 195.4,192.6 195,194.9 194.7,196.9 C 194.8,197.9 195.5,198.8 196,199.6 C 196.5,200.6 197.5,201.2 198.3,201.8 C 198.6,202.2 199.2,202.2 199.6,202.6 C 200.7,203.2 202,203.7 202.8,204.8 C 203.5,205.6 204.3,206.6 205.5,206.4 C 207.5,206.5 209.5,205.8 211.5,206.2 C 212,206.3 213,206.2 212.7,205.5 C 212.1,204.3 211.5,202.9 212.2,201.8 C 213.6,200 216.1,199.5 217.9,198.2 C 219.1,196.9 220.6,195.9 222.3,195.2 C 224.1,194.1 226.3,194.1 228.4,194 C 229.8,193.9 231.1,193 232.5,192.9 C 233.8,193.1 235,193.9 236.4,193.7 C 237.5,193.3 237.3,191.8 238.2,191.2 C 238.9,190.6 239.5,191.8 240.2,191.5 C 241.4,191.4 241.2,190 241.8,189.3 C 243.2,188.8 244.8,189.1 246.3,188.9 C 247.2,188.8 248.3,189 248.9,188.1 C 249.7,187.1 250.9,185.9 252.4,186.4 C 253.3,186.9 253.9,187.9 255.1,187.8 C 256.3,188 257.5,188.5 258.9,188.4 C 259.8,188.4 260.1,189.6 261.1,189.5 C 262.4,189.6 263.9,189.3 264.9,190.4 C 265.9,191.1 267.1,191.7 268.1,192.4 C 268.6,192.5 269.8,192.6 269.6,191.8 C 269.2,190.9 268.1,189.9 268.8,188.9 C 269.6,187.7 270.8,187 271.9,186.2 C 273.4,186 274.9,186.5 276,187.6 C 277.5,188.8 278.9,190.5 281.1,190.6 C 282.8,190.9 284.5,190.7 286.1,190.2 C 288.2,189.7 290.4,189.8 292.4,190.7 C 293.6,190.8 294.9,190.3 296.2,190.4 C 297.8,190.3 299.7,189.6 301.2,190.7 C 302.2,191.8 304,191 305.1,192 C 305.9,192.6 307.1,192.7 308,192.2 C 308.9,191.8 310.1,192.3 310.9,191.6 C 312.9,191 314.4,189.7 316.1,188.7 C 316.6,188.7 317.3,188.6 317.4,187.9 C 317.6,186.8 318.2,186.3 318.6,185.2"
         id="path41" />
      <path
         d="M 123.2,171.5 C 123.2,170.9 122.2,171.1 121.8,170.8 C 120.3,170.1 119.2,168.8 118,167.8 C 117.2,167.2 116.3,166.6 115.4,166.6 C 113.8,166 112,166.4 110.4,166.3 C 108.6,166.3 106.9,165.6 105.2,166 C 103,166.5 101.1,165.1 99.3,164.1 C 98.3,163.7 97.4,163.1 96.3,163 C 94.8,163.4 93.5,164.5 92,164.9 C 90.1,164.9 87.9,165 86.4,166.3 C 85,167.2 83.8,168.6 82.1,168.9 C 81,168.8 80.3,167.8 79.2,167.9 C 78.3,167.7 77.5,167.7 77,168.6 C 76.2,169.6 74.8,169.1 73.7,168.9 C 72.6,168.6 71.1,168.2 70.3,169.3 C 69.5,170.1 68.7,171 67.5,171.1 C 66.2,171.5 66.7,173.2 65.7,174 C 64,175.4 61.8,175.7 59.7,175.9 C 58,176.3 56.1,176 54.4,176.5 C 53.5,177.6 53.9,179.4 52.6,180.1 C 51.5,180.4 50.5,180.1 49.6,179.6 C 47.9,179.2 46,179.9 44.4,179 C 43.4,178.5 42.1,179.1 41.1,178.5 C 40.4,177.6 40.1,176.1 38.8,175.7 C 37.1,175.2 36.5,173.4 35.2,172.5 C 33.1,171.9 32.4,172.1 30.3,172.5 M 17.6,233 C 18.4,233.8 19.4,232.3 20.1,231.9 C 21.3,231 22.8,230.8 24.2,230.3 C 25.7,228.5 27.1,228.3 28.8,226.6 C 29.9,226.3 31,226.4 32,226.8 C 32.7,226.9 33.8,227.2 34,226.3 C 34.5,224.9 33.4,223.3 34.4,222 C 35,221.2 36.1,220.8 37,220.9 C 37.7,221.4 38.7,222.2 39.6,221.7 C 39.9,221.1 39.3,220.4 39.2,219.7 C 38.6,218.4 38.1,217 37.9,215.6 C 38.5,213.7 41.1,214.6 42.4,215.1 C 43.4,215.5 44.1,214.5 43.8,213.7 C 43.6,213.1 43.4,211.9 44.3,211.8 C 45.4,211.4 46.9,211.2 47.5,210.1 C 48.2,209.4 48.7,208.1 49.8,208.1 C 51.2,208.8 52.5,209.9 54.1,209.5 C 55.2,209.4 56.3,209.2 57.2,209.8 C 58.6,210.5 60.2,210.8 61.6,211.5 C 62.4,210.8 62.8,209.7 63.6,209 C 64.3,208.6 65.3,208.8 65.9,208.2 C 66.8,207.6 67.5,206.8 68.6,207.1 C 70.3,207.4 72,208.1 73.1,209.3 C 73.7,210.2 73.2,211.5 73.6,212.4 C 74.3,212.7 75.1,212 75.8,211.9 C 76.4,211.8 77.1,211.3 77.7,211.9 C 79.1,212.7 80.4,213.9 82,214.5 C 83.3,214.8 84.7,215 86,215.1 C 87.1,214.6 88.5,214.6 89.5,213.9 C 89.5,213.2 88.5,212.5 88.1,211.9 C 87.8,211.4 87,210.9 87,210.4 C 88.9,209 91,207.8 93,206.6 C 95.1,207 97.1,207.8 99.1,208.2 C 99.6,207.7 98.9,206.9 98.9,206.2 C 98.7,205.8 98.9,205.3 99.4,205.1 C 100.1,204.5 100.9,203.9 101.7,203.3 C 102.6,203.6 103.5,204 104.4,204.2 C 105,203.7 104.1,202.8 104.8,202.2 C 105.2,201.8 105.5,200.9 106.1,200.8 C 106.8,200.8 108,202 107.9,200.9 C 108.1,200 108,199 108.9,198.5 C 110.1,197.7 111.1,196.4 112.6,196.3 C 114,196 115.5,195.7 116.9,195.3"
         id="path43" />
      <path
         d="M 212.8,205.1 C 213.3,206 213.2,207.1 212.4,207.8 C 211.4,209.1 209.8,209.5 208.4,210.3 C 207.3,210.9 207.1,212.3 207.3,213.5 M 262.3,236 C 263,236.1 263.2,235 264,235 C 265.1,234.8 266.4,235.3 267.2,234.4 C 268,233.7 268.4,232.6 269.6,232.5 C 270.9,232.1 271.5,230.9 271.5,229.6 C 271.6,228.5 272,227.2 273.3,226.9 C 274,226.8 274.8,226.9 275.2,226.2 C 276.3,225.1 277.4,224 278.5,222.9 C 279.3,223.1 280.4,223.3 280.9,222.4 C 281.6,221.2 281.3,219.5 282.7,218.7 C 283.9,218.4 285.1,218.3 286.2,217.6 C 286.9,217.8 287.6,218.5 288.3,218.5 C 288.8,217.9 288.8,216.9 289.7,216.6 C 290.1,216.1 291.1,216.2 291.1,215.4"
         id="path45" />
      <path
         d="M 89.5,214.2 C 88.9,214.9 89.4,216.1 89,216.9 C 88.6,218.1 88.5,219.4 87.4,220 C 85.1,222.2 82.6,224.1 81,226.8 C 80.4,227.7 79.7,228.6 79.1,229.5 C 78.7,230.5 79.2,231.8 80.1,232.4 C 81.3,232.7 82.1,233.7 82,234.8 C 82.2,236.1 82.6,237.4 83.6,238.4 C 84,239.4 83.9,240.8 84.7,241.7 C 85.4,242.6 86.1,243.7 87.2,244 C 88.1,244.1 89.4,244.2 89.7,245.1 C 89.6,248 88.5,250.8 88.3,253.7 C 88.6,256.2 90.8,257.9 91.5,260.4 C 91.9,262.2 92.5,264.1 93.2,265.9 C 93.8,266.7 93.8,267.9 94.5,268.6 C 95.9,269.1 97.9,268.7 99.3,269.1 C 102,269.4 104.6,270.2 107.3,270.3 C 108.3,270.3 109.1,269.6 109.6,268.9 C 110.7,267.6 111.4,265.9 112.8,265.1 C 114.5,264.3 116.5,264.7 118,263.5 C 119.6,262.6 120.9,260.6 123,260.9 C 125.2,261.8 127.1,263.6 129.5,264.3 C 130.6,264.4 131.2,263.2 131.5,262.3 C 131.9,260 131.9,257.5 131.9,255.1 C 131.9,253 129.9,251.7 129,249.9 C 128.1,246.2 127.3,242.5 126.4,238.8 C 125.7,237.6 124,237.4 123.6,236 C 123.1,234.3 123.7,232.1 122.2,230.8 C 121.8,230.1 120.8,229.7 120.3,229 C 119,227.8 118.3,226 116.8,224.9 C 114.2,223.7 111.2,223.7 108.5,222.9 C 107.4,222.4 107.2,221.1 106.3,220.5 C 105.6,219.5 104.2,219.8 103.1,219.5 C 100.1,219 97.2,218.4 94.2,217.8 C 92.8,216.7 91.7,215.2 90.2,214.3 C 90.1,214.3 89.6,214.2 89.5,214.2 L 89.5,214.2 z"
         id="path47" />
      <path
         d="M 129.9,264.1 C 130.4,265.8 131,268 131.3,269.7 C 131.7,272.4 132.8,275.1 132.4,277.9 C 132.3,279.7 130.6,281.2 130.8,283.1 C 131,283.9 131.8,284.4 131.9,285.2 C 132.2,286.1 132.4,287.1 131.9,287.9 C 131.2,289.3 132.8,290.9 131.7,292.2 C 131.2,293 130.3,293.2 129.6,293.7 C 129.1,295 130.3,296.2 131.2,297.1 C 131.9,297.7 132.5,298.6 133.3,299 C 134.1,298.7 133.7,297.6 133.9,297.1 C 133.9,296 134.8,295 135.8,294.8 C 138,294 140.6,293.9 142.6,295.1 C 144,295.9 145.7,296.2 147.3,295.8 C 148.4,295.5 148.9,294.4 149,293.5 C 149.3,292.3 149.6,290.9 150.9,290.3 C 152.1,289.7 153.4,289.2 154.4,288.2 C 155.5,287.1 157,286.7 158.5,287.1 C 159.9,287.3 161,288.1 162.1,288.7 C 163.4,289.3 164.8,289 165.9,288.2 C 168.8,286.7 171.9,285 175.2,285 C 176.3,285 177.6,284.9 178.2,283.9 M 206.2,231.3 C 205.5,230.1 204,228.7 204.6,227.1 C 205.6,226 207.5,225.1 207.5,223.3 C 207.5,220 207.2,216.7 207,213.3 C 206.9,213.1 206.6,213.1 206.4,213.1 C 204.6,213.6 203.3,215.2 202,216.4 C 200.9,217.3 199.9,218.9 198.2,218.7 C 197.4,218.4 196.6,217.7 195.6,218 C 194.2,218.7 192.8,219.6 191.2,219.9 C 190,220.1 189.6,221.5 188.9,222.2 C 188.1,223.7 186.5,224.5 184.9,224.9 C 182,225.9 179.7,228 176.8,229 C 175.3,229.2 173.8,228.9 172.3,228.9 C 171.7,229.2 171.8,230.1 171.1,230.5 C 169.8,231.7 168.2,232.6 166.4,232.9 C 164.5,233.8 162.2,233.9 160.2,233 C 158.2,232.7 156.2,233.5 154.3,233.7 C 153.3,234.1 153.6,235.5 152.8,236 C 152,236.7 151.2,238 149.9,237.6 C 148.5,237.1 147.1,236.3 145.5,236.4 C 144.1,236.4 142.8,236.5 141.5,236.5 C 140.5,235.7 140.9,233.8 139.4,233.5 C 137.7,233 135.8,233.5 134.2,232.6 C 133.6,232.3 133.6,231.7 133.3,231.3 C 132.8,230.9 132,231.3 132.2,231.9 C 132,233.5 132.3,235.1 132.1,236.6 C 131.7,237.2 131.1,237.8 130.3,237.7 C 128.8,237.7 127.3,237.7 125.8,237.7"
         id="path49" />
      <path
         d="M 89.5,301.5 C 90.6,301.9 89.9,301.4 90.5,300.7 C 91.5,299.6 92.7,298.6 93.6,297.5 C 93.6,295.9 93.2,294 94.6,292.7 C 95,292.2 95.1,291.6 94.6,291.1 C 94,290.2 92.9,289.3 93.3,288 C 93.4,287.1 93.7,286 94.8,285.6 C 96.5,284.6 98.7,284.5 100.1,283 C 100.9,282.3 102,281.7 102.6,280.8 C 102.4,279.7 101.6,278.8 100.7,278.3 C 99.9,277.6 99.6,276.6 99.4,275.6 C 98.6,274.4 96.9,273.9 96.1,272.8 C 95.8,271.5 95.6,269.6 94.5,268.6 C 92.7,268 90.9,268.5 89.1,268.1 C 87,267.4 84.8,269.1 82.8,268.2 C 81.1,267.5 80.2,265.6 78.4,265 C 77.4,264.4 76.2,265.1 75.2,265.1 C 72.8,265.5 70.5,266.4 68.2,267 C 66.4,267.6 64.5,268.3 62.7,267.7 C 59.9,267.1 57.1,266.3 54.3,265.6 C 53.5,264.9 52.8,264.1 52.1,263.3 C 50.8,262.6 49.1,263 47.5,262.9 C 46.1,262.7 44.8,263.8 43.3,263.5 C 41.7,263.1 41.4,261.1 40.4,260 C 39,258.4 36.5,258.7 34.7,257.8 C 34.3,257.7 33.9,257.6 33.5,257.6 C 32,257.8 30.7,258.7 29.5,259.6 C 26.7,261.5 23.6,263.2 20.2,264 C 19.7,264.2 17.2,264.8 17.5,265.7"
         id="path51" />
      <path
         d="M 222.3,227.7 C 220.3,227.6 219,229.6 217,229.7 C 215.5,229.4 214.4,227.6 212.7,228 C 211.3,228.6 209.5,227.9 208.2,229 C 207.6,229.5 206.5,229.7 206.1,230.4 C 206.6,231.8 206.8,233.3 206.6,234.8 C 206.2,236.4 204.4,236.9 203.2,237.6 C 201.2,238.3 200.3,240.3 199.9,242.2 C 199.6,243.1 198.9,244 197.8,244.1 C 196.3,244.6 194.2,245.3 194.1,247.1 C 194,248.4 194.7,249.5 195.6,250.4 C 196.2,251.3 196.5,252.4 196.1,253.4 C 195.9,255.2 195.1,256.8 194.3,258.4 C 193.6,260 193.9,261.9 193.3,263.5 C 192.2,264 191.1,264.8 190.2,265.6 C 189.7,266.5 189.4,267.4 188.7,268.2 C 188.1,269.2 186.9,270 187.1,271.3 C 187,272.2 187.4,273.4 186.3,273.9 C 185,275.2 183.4,276.3 182.2,277.7 C 181.5,278.6 181.5,279.8 181.2,280.8 C 180.3,281.8 179,282.7 178.5,284 C 178.2,284.6 177.1,284.8 177.6,285.6 C 178.5,288.7 179,292 180.4,295 C 181,295.9 182,296.5 182.4,297.5 C 182.3,299.6 181.7,301.7 181.6,303.7 C 181.6,304.5 182.4,304.9 182.7,305.6 C 183.7,306.8 185.1,307.9 185.9,309.3 C 186.1,310.2 185.9,311.2 186,312.1 C 189.1,312.1 192.3,312 195.2,311.2 C 197.8,310.1 199.4,307.8 201.7,306.3 C 202.8,305.6 203.8,304.6 205.2,304.9 C 206.5,305 208.1,305.3 208.9,304.1 C 209.9,302.8 210.6,301.2 212.3,300.8 C 213.6,300.4 215.1,300.5 216.1,299.4 C 216.9,298.7 218.3,299.5 219,298.5 C 219.6,297.8 220.6,297.4 221.4,297 C 222.1,296.1 221.9,294.8 222.3,293.7 C 222.5,292.6 222.6,291.4 223.1,290.5 C 223.6,289.9 224.9,290 224.7,289 C 224.9,287.4 224.8,285.6 225.2,284.1 C 225.9,283.3 227.1,282.9 226.9,281.7 C 226.8,280.7 227.3,279.7 228.3,279.2 C 229.2,278.6 229.3,277.5 229.6,276.6 C 230.4,275.3 232,274.9 233.5,274.8 C 234.9,274.6 236.5,274.6 237.7,273.9 C 239,272.9 238.6,271 239.2,269.6 C 239.5,268.4 240.5,267.6 241.6,267.1 C 242.5,266.4 242.5,265.1 243.5,264.4 C 243.9,263.9 244.4,263.6 244.9,263.3 C 245.7,262 245.4,260.3 245.7,258.9 C 246,257.8 247,257 247.6,256 C 248.6,254.5 247.8,252.6 247.8,250.9 C 247.4,249 247.8,247 248.7,245.3 C 250.1,245.1 251.7,245.5 252.9,244.7 C 253.8,243.8 254,242.2 255.3,241.6 C 256.4,241 257.4,240.3 257.7,239.1 C 258.3,237.5 260.2,237.2 261.7,236.8 C 262.4,236.5 261.6,236 261.2,235.8 C 259.5,235 257.7,234 256.3,232.9 C 255.2,232 254.2,230.9 254,229.6 C 253.5,228.4 251.9,228.6 250.9,228.9 C 249.3,229.4 248.2,230.7 246.8,231.4 C 246.4,231.9 246.6,232.6 246.2,233 C 245.2,234.3 243.7,235.3 242,235.1 C 240.8,235.2 239.7,234.9 238.8,234.3 C 238.2,234 237.4,234 236.9,233.7 C 235.9,232.2 233.8,232.5 232.2,232.4 C 231.3,232.5 230.4,232.5 229.6,231.9 C 228.5,231.2 227,230.7 226.5,229.5 C 225.7,228.4 224.5,227.5 223.1,227.7 C 222.8,227.7 222.6,227.7 222.3,227.7 L 222.3,227.7 z"
         id="path53" />
      <path
         d="M 241.9,266.8 C 241.8,268.1 241.7,269.7 242.4,270.9 C 242.9,272 243.3,273.1 243.1,274.4 C 243,276 243.3,277.6 242.9,279.1 C 241.5,281.1 241.6,283.6 241.4,285.8 C 241.3,287.8 241.6,289.8 241.7,291.8 C 241.5,293.8 241.4,295.8 241,297.7 C 240.1,297.8 239.3,297.8 238.4,297.8 C 238.5,299.2 238.3,300.6 238.5,302 C 239.2,302.6 239.7,303.4 239.5,304.3 C 239.5,305.2 239.6,306 240.2,306.7 C 240.4,307.5 240.6,308.5 240.4,309.2 C 239.5,310.8 238.5,312.3 238.6,314.3 C 238.3,316 238.7,317.8 239.3,319.4 C 239.6,320.3 240,321.4 239.1,322 C 238.5,322.6 238.1,323.7 238.5,324.4 M 295.9,251.2 C 295.6,248.2 296.1,244.9 295.3,241.9 C 295,240.9 294,240.2 293.8,239.2 C 293,238 293,236.5 293.3,235.1 C 293.3,234 293.7,233 294.4,232.1 C 294.6,231.5 293.8,231.3 293.4,231 C 292.6,230.3 292.7,229.1 292.9,228.2 C 293.2,227.2 294.2,226.6 294.4,225.7 C 293.8,225 292.5,225.1 291.8,224.5 C 290.5,223.2 289.8,221.3 290,219.6 C 290.1,218.8 290.9,218.8 291.4,218.7 C 292.3,218.1 291.5,216.9 291.4,216.1 C 291.4,216 291,216 290.9,216"
         id="path55" />
      <path
         d="M 133.5,299.1 C 133.4,300 133.6,300.6 133.7,301.6 C 133.7,302.9 133.8,304.4 133.7,305.7 C 133.1,307.2 132,308.4 130.6,308.9 C 129.8,309.2 129,309.8 129.2,310.7 C 129.3,312 130.1,313.2 130,314.6 C 130.2,315.7 131.7,315.6 132.5,316.3 C 133.8,317.1 135,318 135.6,319.4 M 190.8,324.3 C 190.7,322.8 189.5,321.3 188.5,320.3 C 188.6,318.8 188.7,317.5 188.8,316.1 C 187.2,315.4 186,314 186,312.2"
         id="path57" />
      <path
         d="M 153.8,330 C 153.9,328.9 152.8,328.7 152.8,327.5 C 152.8,326.4 152.7,325.1 153.4,324.2 C 153.7,323.6 153.8,322.4 152.9,322.4 C 151.8,322.4 150.7,322.2 150,321.3 C 149.1,320.7 148.7,319 147.3,318.9 C 145.8,319.3 145.4,321.2 143.9,321.6 C 143,322.2 142.1,321.4 141.5,320.8 C 141,320.3 140.9,319.5 140.2,319.1 C 139.6,318.7 138.9,318.3 138.2,318.3 C 137.4,318.5 136.2,318.8 135.8,319.4 C 136,320.7 136.5,321.9 135.4,323 C 134.2,323.2 134.7,323.5 134.2,323.8"
         id="path59" />
    </g>
    <g
       style="fill:none;stroke:#646464;stroke-width:2;stroke-linejoin:round;"
       id="g61">
      <path
         d="m 20.8,214.8 3.6,0.2 c 3.1,-0.5 6.5,-0.2 8.4,-5.2 1.1,-2.9 1.7,-5.8 0.9,-8.7 0.7,-3.5 -0.1,-5.7 -0.5,-9.1 -0.6,-3.7 0.4,-8 -1.3,-11.4 L 31.5,180 c -0.9,-1.9 -2.7,-10.8 -0.4,-12.1 l 0.9,-1.6 c 4.1,-2.9 4.6,-6.3 1.8,-10.6 -0.4,-2.2 -1.8,-2.6 -2.9,-4.4 0.7,-3.5 3.6,-7.3 1,-10.1 0,-2.3 -0.8,-5.7 -2.2,-7.3 0.1,-1.7 0.2,-3.1 2.4,-2.7 5.4,0.8 9.3,-13.8 10.3,-16.4 0.8,-2.8 -4.1,-5.9 -6.4,-8.3 1.5,-3.5 7.5,-2.1 5.9,-7.3 0.1,-0.5 0.3,-0.9 0.4,-1.4 3,-3.2 5.2,-8.7 4.2,-13 L 48.6,81 c 1.7,-3.3 -4.6,-7.5 -3.3,-9.9 1.5,-1.4 3.1,0.8 5.4,-0.9 1.5,-1.2 2.4,-4.2 2,-5.8 0.1,-0.9 0.3,-2.3 0.2,-3 -0.4,-3.7 -0.2,-6.9 -2.8,-9.8 0.1,-2.2 -0.7,-2 -2.2,-3.3 0.2,-1 0.3,-2.9 0.4,-3.9 0.1,-1.8 2.7,-6.9 8,-7.2 l 3,-2.3 c -0.1,0.1 -0.1,0 0.2,0.1 2.5,-1.3 2.9,-4.9 3.9,-6.4 0.1,-0.1 1,-1.4 0,-2.4 -3.046559,-4.11894 -2.529958,-4.253197 -2.334473,-4.583661 m 2.42111,-0.259404 C 64.286637,21.156935 65.5,23.2 66,24.2 c 0.6,1.6 -1.6,2.8 1.6,4.1 2.8,1.1 2.2,-2.3 4.7,-0.1 1.9,-0.6 1,0.4 1.6,1.3 l 0.4,0 0.8,0.4 c 0.8,-0.4 0.6,-1.5 1.3,-2 L 77,27.8 c 0.1,0.3 0.3,0.7 0.7,0.8 0.5,-0.3 0.9,-0.7 1.4,-0.8 0.8,-2.1 1.8,0.8 2.3,1.2 l 0.6,0.1 c 0.2,-0.3 1.3,-1 1.3,-0.6 3.3,1.6 3.2,-2.4 4.7,-2.4 0.1,-0.3 0.5,-0.6 0.8,-0.9 0,-0.7 -0.6,-1.2 -0.5,-1.9 0,-0.1 2,-3.7 2.2,-3.9 0.2,-0.2 0.7,-0.3 1,-0.2 0.2,-0.5 0.1,-1 -0.2,-1.4 l 0.2,-0.3 0.6,-0.2 0.6,0.7 0.1,-0.2 0.2,-0.3 -0.3,-0.7 c 0.2,-0.5 0.7,-0.8 1.2,-1 l 0.3,0 0,0.6 c 2.2,1.3 3.2,-2.6 4.7,-0.1 1.1,0.3 2.8,-0.4 3.6,-0.1 l 2.9,0.1 0.2,0 c 1.3,-1 2,-0.1 2.6,0.9 l 1,1.1 c 2.3,-0.2 0.1,2.7 1.7,2.7 1.5,-0.9 1.8,0.7 3.2,0.9 l 0.4,0.4 c 0.2,0.4 0.2,1.3 0.9,1.2 0,0 1.5,-0.1 1.9,-0.3 l 0.8,0.3 -0.9,0.8 c 0,0 0.5,0.3 0.8,0.5 0.1,0.5 0.6,0.9 1.1,1.2 l 0.2,0.5 c 0,0 0.4,1.3 0.7,1.1 0.9,0.6 0.1,1.5 -0.5,2 l 0.2,0.3 0.3,0.1 1.1,-0.4 0.5,-0.3 0.5,0 0,0.3 -0.1,0.4 0.2,0.2 c 0.3,0.1 0.7,0.4 0.9,0.7 l 0.4,0 0.3,-0.4 0.3,0 0.2,1.2 -0.2,0.4 c -0.2,0.2 -0.5,0.4 -0.5,0.7 l 0.2,1.2 c 1.2,-0.1 1.7,-1.2 2.2,0.9 0.4,0.2 0.8,0.7 1,1 l 1.5,-0.5 0.2,0.1 c 0.1,0.5 0.4,1 0.8,1.3 l 0,0.1 c -0.3,0.4 -0.4,0.6 -0.1,1 l 0.8,0.7 1,-0.3 c 0,0.5 0.1,1.1 0.8,1.2 l 0.2,0.3 -0.4,0.6 c 0,0 1.1,2 1.3,2.2 l 1.1,0.4 c 0.2,-0.2 0.2,-0.5 0.2,-0.7 l 0.4,-0.1 0.2,0.1 c 0.1,1.2 1.3,1 0.9,2.2 0.4,0.7 1.5,0.4 2,-0.1 l 0.5,0.1 0,0.7 c 0.3,0.2 1.7,2 1.7,2 -0.3,0.5 0.4,0.7 0.4,0.7 l 0.2,-0.2 c 0.5,0 1.1,0 1.5,0.3 l -0.1,0.2 0.4,1.3 c 0.5,0 1,0.2 1.6,0.2 l 0.9,0.9 -0.3,0.6 0.1,0.5 0.6,0.5 0.1,0.2 c -0.8,1.2 0.5,1.9 1.4,2.4 -1.3,2 1,0.6 0.6,3.6 l 0.2,0.2 c 0.8,0.1 1.1,-1.2 2.1,0.9 l 0.2,0 0.7,-0.7 0.4,0 c 0.4,0.3 0.2,1 0.1,1.4 l 0.4,0.6 0.6,0.3 0.4,-0.3 0.2,0 0.3,0.6 0.5,0.8 c 0.1,0.3 0.5,1.1 0.5,1.1 l 0.1,0.2 c 0.6,0.3 0.7,0.8 0.6,1.4 m 12.3,12.3 c 0.7,-0.6 1.5,-0.9 2.3,-1.6 0.7,-0.5 2.3,-2.3 2.9,-2.5 0.7,-0.1 1.4,0.3 2,0 0.5,-0.2 0.7,-0.6 0.9,-1.1 1.5,-2.7 -1.1,-5.9 2.2,-6.3 0.6,0 1,0 1.5,0.5 1.7,3.5 -0.4,0.8 3.3,3.5 1,0.8 1.1,2.3 1.8,2.8 0.7,0.4 2.2,0.9 2.7,1.5 0.5,0.6 0.2,1.7 0.8,2.4 1,1.1 2.7,0 4.4,3.8 0.5,1.1 0.6,4.2 1.4,4.7 0.6,0.5 1.5,0.9 2,1.4 0.1,0.1 2.6,6 2.9,6.4 0.8,0.8 2.4,0.7 3.5,1.3 2.3,1.5 4.8,5.2 8.3,2.3 0.7,-0.6 0.9,-1.6 1,-1.8 l 0.3,0 c 1.1,1.3 1.5,2.7 2.6,3.8 1.6,1.7 0.8,2.5 1.5,3.3 0.9,0.2 2.2,0.1 3,0.6 1.6,0.8 1.9,2.7 3.6,3.1 1.9,-0.6 5.4,-0.9 7.3,0 l 0.2,0.1 c 1.9,-0.2 4.5,0.2 6.2,-0.1 0.1,0.8 0.3,1.5 0.7,2.2 1,0.4 3.5,1.5 4.1,2.3 1.1,1.3 2.3,8.1 2.3,9.8 2.4,1 14,10.2 16.8,12.4 0.5,0.4 0.9,1.1 1.3,1.4 1.4,1 1.3,0.3 3.1,2 0.3,0.2 1,0 1.4,0 2.5,-3.3 3,0.6 3.9,0.7 0.7,0 1.9,-0.1 2.4,0.4 l 0.1,0.3 -0.4,0.9 c 0.1,0.4 0.4,0.9 0.7,1.1 l 0.3,0 0.5,-0.4 0.3,0.5 c 0.6,0.4 1.3,0.1 2.2,1 0.4,0.5 0.5,1.5 1.2,1.6 0.2,-0.1 0.7,-0.3 1,-0.2 l 0.3,0.3 c 0.2,0.6 0.3,1.3 0.1,1.8 l 0.1,0.2 0.6,0 0.1,0.7 0.3,0.2 c 0,0.7 0.2,1.2 1,1.1 0.4,0.7 1.1,0.7 1.9,0.6 0.3,0.4 1.7,0.7 2.2,0.8 0.2,0.2 0.6,0.9 0.8,1.2 l 0.8,0.2 -0.3,0.4 -0.2,0.1 -0.2,-0.2 -0.3,0 c 0.1,0.3 -0.1,0.9 -0.2,1.1 0,0.4 0.7,1.2 0.9,1.5 0,0.2 -0.4,0.5 -0.6,0.6 l 0.6,0.1 0.4,0.4 -0.1,0.6 0.5,0.6 -0.1,0.3 c 0.1,0.1 0.1,0.3 0.3,0.3 l 0.6,0.1 -0.1,0.3 -0.3,0.1 -0.1,0.3 0.1,0.3 0.3,0.2 0.5,-0.1 c -0.1,0.5 0.6,1.4 1,1.7 -0.2,0.3 0,1.2 -0.2,1.7 l 0.1,0.2 c 0.3,0.1 0.5,0.5 0.7,0.7 l 0.4,0.2 0.3,0.9 0.5,0.2 c 0.1,0.3 0.1,0.8 0,1.1 l -0.2,0.1 -0.3,0.1 -0.1,0.4 c 0.7,0.6 0.7,1.4 1.3,2 l -0.3,0.5 0.1,0.4 -0.4,0.4 c -0.1,1.1 0.2,1.4 1.3,1.6 0.3,0.4 0.3,0.9 0.3,1.5 0.2,0.1 0.5,0.6 0.6,0.9 0.2,0.1 0.4,0.2 0.7,0.3 0.3,0.2 0.5,0.7 0.6,1.1 0.7,0.3 1.2,1.4 1.8,1.4 l 0.5,0.4 c 0.2,0 0.5,0.3 0.7,0.5 0.2,0 0.6,-0.2 0.8,-0.3 l 0.3,0.2 c 0.6,-0.1 1.7,-0.3 2.4,-0.4 0.1,0.1 0.3,0.4 0.4,0.6 l -0.2,0.5 c 0.5,1.5 1.3,2.9 2.1,4.4 l 0.4,0 c 0.5,0.3 1.2,1.3 1.4,1.3 l 0.6,0 0.5,-0.5 0.5,0 1.1,0.8 c 1.1,-0.2 2.6,1.2 3.3,1.9 l 0.4,0 c 0.7,-0.4 0.7,-1 1.8,-0.8 0.4,0.3 0.8,1.3 1,1.7 0.5,0.4 1.6,0.8 2.2,0.8 0.6,0.4 0.8,1.1 1.2,1.5 l 2.4,2 c 1.2,1.1 0.7,0.7 1.4,1.4 1.5,1.2 2.5,3.1 0.3,4.4 -0.5,0.2 -1.6,0.1 -2.1,0.2 -0.6,0 -1.2,0.4 -1.5,0.9 -0.2,0.8 -0.3,1.9 -0.8,2.7 -1.7,2.2 -5.3,2.5 -7,4.5 0,0.2 0,0.5 0.1,0.7 0.8,0.8 1.9,0.5 2.8,1 -1.5,2.1 -5.1,2.9 -6.8,4.8 -5.1,3.5 -4.7,3.3 -8,8.7 -1.4,2.2 -1.2,6.2 -0.9,8.6 0.4,3.3 0.8,6.1 0.6,9.3 -0.2,3.3 -0.4,6.5 -0.8,9.8 -0.3,2.8 0.3,5.6 -0.2,8.3 1.2,0.2 4.6,0.1 5.4,1 0.3,0.6 0.2,1.5 0.3,2.2 0.3,0.5 2.6,1 3.1,0.9"
         id="path63"
         inkscape:connector-curvature="0"
         sodipodi:nodetypes="ccccccccccccccccccccccccccccccccccccccccccccccccccsccccccccccccccccccccccccccccccccccccccccccccccccccccccccccccccccccccccccccccccccccccccccccccccccccccccccscccscccccccccccccccccccccccccccccccccccccccccccccccccccccccccccccccccccccccccccccccccccccccccccscccccccccccccccccccccccccccc" />
      <path
         d="m 118.65431,-45.768537 c -1.8,3.7 -0.7,12.3 -8,13.5 -0.1,3.6 -2.8,6.4 -5.6,8.2 l -1.1,0.4 c -1.1,2 -2.8,3.1 -4.200001,4.8 0.2,1.4 -0.2,2.7 -1,3.5 l -2,0.7 c -0.3,0.1 -2,2.9 -2.7,3.6 -2.4,2.6000004 -6.7,6.9000004 -10.6,5.4000004 -6.6,4.89999996 -1.8,7.6 -5.4,13.5 l -0.3,0.4 c -3.3,3.8999996 -2.4,-0.4 -6.6,6.7999996 -1.2,2 -4.6,4.1 -7.6,5.2"
         id="path65"
         inkscape:connector-curvature="0" />
    </g>
  </g>
  <path
     id="path63-9"
     style="fill:#f5f5f5;fill-opacity:1;fill-rule:evenodd;stroke:#646464;stroke-width:1.99999992;stroke-linejoin:round;stroke-miterlimit:4;stroke-dasharray:1.99999992, 1.99999992000000000;stroke-dashoffset:0"
     d="m 154.8,64.899993 c 2.4,1.5 -0.7,2.8 0.1,5.7 -0.2,0.4 -0.5,0.9 -0.8,1.2 l 0.1,0.3 0.3,0.2 0.1,1.1 0.3,0.3 -0.5,0.7 0.3,0.3 c -0.4,0.4 -0.6,4.4 -0.1,5.2 0.9,0.5 2.2,1.4 3.2,1.7 0.3,0.1 4.5,-0.5 4.6,-0.6 1.1,-0.6 1.9,-1.4 2.9,-2.1 0.1,0 0.3,-0.1 0.4,-0.2 0.5,-0.5 0.9,-1.1 1.4,-1.5 l -1.08668,-0.823151 -1.62858,-1.159321 -1.16268,-0.787245 c -0.28543,-0.06658 -0.5163,-0.849906 -0.54147,-0.857741 -0.20988,-0.101837 -0.44493,0.289829 -0.73455,0.148832 -0.4911,-0.238913 -1.06194,-0.877326 -1.39354,-1.198487 -0.0712,-0.06658 0.021,-0.317249 -0.0378,-0.37208 -0.18888,-0.180165 -0.43652,-0.137084 -0.6212,-0.223249 -0.1805,-0.09009 -0.39458,-0.375997 -0.61703,-0.45041 -0.13852,-0.04309 -0.29382,-0.05875 -0.39035,-0.148836 -0.1553,-0.152748 0.042,-0.520912 -0.0755,-0.634491 -0.1553,-0.152749 -0.65899,0.223247 -0.96959,-0.227167 -0.12593,-0.184081 -0.1721,-0.626657 -0.23087,-0.857741 -0.0629,-0.250664 -0.23925,-0.422995 -0.34837,-0.634492 -0.0462,-0.094 0.3148,-0.364249 0.19306,-0.599245 -0.15948,-0.309414 -0.53305,-0.466078 -0.81008,-0.599247 -0.16789,-0.07834 -0.35679,-0.571824 -0.42814,-0.708908 z"
     inkscape:connector-curvature="0"
     sodipodi:nodetypes="cccccccccccccsccccccccccccccccccc" />
  <path
     style="fill:#f5f5f5;fill-opacity:1;fill-rule:evenodd;stroke:#646464;stroke-width:0.99999996;stroke-linejoin:round;stroke-miterlimit:4;stroke-dasharray:0.49999998,0.49999998;stroke-dashoffset:0"
     d="m 60.830569,21.682076 c 0.126529,-1.375282 0.0972,-0.69872 2.041892,-1.087978 0.575712,0.248576 0.162634,0.319885 0.772227,1.100699 -0.06054,-0.04762 -0.710286,0.240325 -0.710286,0.240325 l -0.877889,0.02141 z"
     id="path63-1"
     inkscape:connector-curvature="0"
     sodipodi:nodetypes="cccccc" />
</svg>
