<?xml version="1.0" encoding="utf-8"?>
<!-- Designed by Vexels.com - 2020 All Rights Reserved - https://vexels.com/terms-and-conditions/  -->
<svg version="1.1" id="Capa_1" xmlns="http://www.w3.org/2000/svg" xmlns:xlink="http://www.w3.org/1999/xlink" x="0px" y="0px"
	 viewBox="0 0 1200 1200" enable-background="new 0 0 1200 1200" xml:space="preserve">
<path d="M1020.454,573.841c18.449,8.58,49.423,23.708,67.557,35.152h-67.557V573.841z M1009.723,565.929v48.431v58.89h-62.298
	V452.53l48.544,31.66L1009.723,565.929z M668.649,960.235c0.194,1.174,4.367,24.948,27.847,48.123
	c-14.388-4.008-34.373-14.263-46.788-40.406c-8.326-17.528-10.99-31.606-13.338-44.027c-3.845-20.312-6.978-36.519-31.715-53.027
	l7.723-60.213c3.318-1.25,6.618-2.657,9.87-4.214l34.19,25.412c4.05,8.046,28.861,61.224,12.305,126.156
	C668.563,958.756,668.529,959.504,668.649,960.235z M465.475,958.038c-16.536-64.854,8.235-118.021,12.328-126.158l33.78-25.105
	c7.934,3.702,16.224,6.58,24.738,8.595l6.415,44.879c-28.993,18.201-35.465,40.047-42.904,65.306
	c-3.689,12.526-7.87,26.723-15.321,42.396c-12.575,26.478-32.586,36.669-46.94,40.571c23.608-23.227,27.805-47.112,27.999-48.288
	C465.69,959.504,465.656,958.756,465.475,958.038z M298.67,827.958c-1.568,0.642-3.184,1.283-4.881,1.916
	c-27.464,10.3-48.929,3.703-61.957-3.477c33.118-0.282,52.741-14.532,53.697-15.244c0.595-0.441,1.09-1.001,1.457-1.644
	c3.442-6.022,7.384-11.862,11.685-17.514V827.958z M298.67,590.901c-2.744-1.119-5.347-2.225-7.894-3.361
	c-26.796-11.903-37.49-31.656-41.756-45.911c23.815,23.018,47.792,26.606,48.973,26.77c0.224,0.031,0.45,0.02,0.676,0.023V590.901z
	 M669.778,528.191l-53.07,40.072c-1.457-0.617-2.931-1.209-4.425-1.787l-11.749-75.2c8.089-13.475,41.271-63.611,99.322-86.609
	c0.689-0.272,1.315-0.685,1.837-1.212c0.836-0.845,17.634-18.168,22.63-50.768c5.19,13.998,8.606,36.194-5.284,61.6
	c-7.137,13.048-14.538,24.07-21.069,33.794C681.201,473.055,667.904,492.971,669.778,528.191z M736.632,646.957l-47.913-6.122
	c-3.565-8.85-8.153-17.319-13.696-25.257l25.017-31.537c0.629-0.095,1.252-0.289,1.839-0.621
	c0.618-0.351,62.641-34.783,132.152-15.172c0.71,0.2,1.459,0.251,2.193,0.151c1.182-0.164,25.167-3.752,48.981-26.78
	c-4.255,14.26-14.941,34.015-41.74,45.92c-13.765,6.108-26.34,10.318-37.438,14.032C778.371,610.826,756.35,618.264,736.632,646.957
	z M651.002,772.947c-8.929,9.084-19.154,16.611-30.396,22.375c-4.876,2.506-9.895,4.653-14.933,6.39
	c-9.73,3.393-19.914,5.485-30.304,6.218c-2.835,0.219-5.758,0.33-8.685,0.33c-8.281,0-16.513-0.844-24.488-2.51
	c-10.013-2.059-19.728-5.415-28.882-9.98c-11.417-5.664-21.823-13.097-30.934-22.094c-0.002-0.002-0.003-0.004-0.005-0.006
	c-0.002-0.002-0.004-0.003-0.006-0.005c-11.597-11.442-20.6-24.854-26.756-39.862c-5.939-14.479-8.949-29.809-8.949-45.564
	c0-0.954,0.018-1.91,0.042-3.08c0.327-12.756,2.628-25.27,6.843-37.205c3.815-10.853,9.167-21.102,15.905-30.464
	c7.034-9.784,15.379-18.382,24.802-25.554c7.22-5.487,15.012-10.114,23.175-13.764c3.437-1.552,6.983-2.879,10.568-4.053
	c0.132,0.01,0.265,0.028,0.396,0.028c1.261,0,2.438-0.454,3.37-1.212c1.329-0.393,2.658-0.787,3.984-1.128v42.551v15.992
	c-4.128-3.336-9.371-5.345-15.08-5.345c-13.257,0-24.043,10.785-24.043,24.041s10.786,24.043,24.043,24.043
	c5.709,0,10.952-2.009,15.08-5.345l0.77,68.094c0,2.527,2.044,4.595,4.594,4.595c0.511,0,3.418,0.771,4.594,0.771h127.888
	C667.775,752.979,660.22,763.639,651.002,772.947z M390.682,728.051l51.13,11.326l-35.781,53.317
	c-32.062-6.353-49.66,3.907-71.723,16.881c-7.332,4.312-15.464,9.077-24.907,13.602v-43.977
	C342.243,744.076,383.083,730.372,390.682,728.051z M328.228,601.585c-6.029-2.018-12.256-4.116-18.826-6.536v-29.084
	c60.646-13.338,113.493,11.094,123.082,15.918l25.928,32.707c-5.555,8.247-10.145,17.081-13.698,26.344l-47.105,6.019
	C377.891,618.278,355.875,610.84,328.228,601.585z M385.486,648.503l-76.085,9.722v-51.755c5.343,1.91,10.449,3.627,15.421,5.292
	C349.897,620.154,368.643,626.488,385.486,648.503z M436.248,448.063c-6.531-9.72-13.932-20.736-21.072-33.774
	c-14.074-25.74-10.579-47.935-5.313-61.85c4.965,32.763,21.847,50.171,22.686,51.017c0.521,0.527,1.147,0.939,1.837,1.212
	c58.884,23.319,91.895,74.022,99.792,87.402l-10.555,72.211c-2.562,0.866-5.091,1.82-7.593,2.866l-51.566-38.936
	C466.343,492.97,453.034,473.047,436.248,448.063z M605.633,575.411c3.553,1.288,7.05,2.717,10.362,4.231
	c8.135,3.783,15.832,8.401,22.89,13.74c9.481,7.11,17.857,15.51,24.91,24.979c6.937,9.239,12.421,19.303,16.298,29.915
	c4.373,11.93,6.613,24.299,6.657,36.766c0,1.013-0.024,2.004-0.045,3.057c-0.383,14.629-3.205,28.804-8.402,42.374H545.71v-20.626
	h37.262c2.963,0,5.365-2.402,5.365-5.365v-90.122c0-2.963-2.402-5.365-5.365-5.365c-0.64,0-1.245,0.131-1.814,0.336
	c-0.569-0.206-1.174-0.336-1.814-0.336h-32.861v-39.391c5.826-0.923,11.753-1.41,17.708-1.41c0.796,0,1.593,0.009,2.389,0.025
	C579.854,568.476,593,570.898,605.633,575.411z M546.482,619.725h31.124v79.391h-31.124V619.725z M561.318,557.526
	c-7.186,0.168-14.336,0.921-21.292,2.312c-1.677,0.324-3.376,0.727-5.073,1.135l9.405-64.355c1.734-1.625,2.246-4.258,1.065-6.447
	l-0.097-0.177l15.992-109.421V557.526z M505.078,572.323c-4.691,2.507-9.234,5.328-13.614,8.423l-104.205-97.383L505.078,572.323z
	 M465.043,605.682l-24.848-31.343c-0.014-0.018-0.032-0.03-0.047-0.048c0,0,0,0,0,0l-0.001,0l-82.253-103.684L482.88,587.41
	C476.38,592.88,470.411,598.987,465.043,605.682z M418.593,564.383c-23.296-8.453-64.072-18.689-109.191-9.41V426.746
	L418.593,564.383z M533.98,649.048c0,7.34-5.971,13.312-13.309,13.312c-7.341,0-13.312-5.972-13.312-13.312
	s5.971-13.31,13.312-13.31C528.009,635.737,533.98,641.708,533.98,649.048z M692.639,652.154l179.195,22.898l-174.507,4.486
	C696.86,670.293,695.276,661.128,692.639,652.154z M668.28,606.813c-5.471-6.636-11.572-12.722-18.229-18.199l126.301-118.036
	L668.28,606.813z M641.41,582.001c-4.409-3.09-9.007-5.951-13.801-8.524l119.349-90.117L641.41,582.001z M590.599,497.187
	l10.224,65.443c-9.426-2.691-19.056-4.357-28.775-4.931V378.453l17.298,110.719c-0.355,0.633-0.557,1.004-0.557,1.004
	C587.464,492.649,588.292,495.681,590.599,497.187z M536.543,475.883c-14.484-21.152-46.651-60.371-97.043-80.727
	c-3.623-4.171-20.362-25.397-20.265-61.418c0.005-2.286-1.436-4.324-3.592-5.079c-2.159-0.756-4.556-0.06-5.976,1.729
	c-1.273,1.603-30.825,39.812-3.904,89.051c7.372,13.467,14.92,24.699,21.577,34.609c14.952,22.253,26.162,39.02,26.567,66.193
	L312.115,413.178c-0.061-0.046-0.129-0.073-0.191-0.116c-0.16-0.111-0.325-0.209-0.494-0.301c-0.141-0.077-0.281-0.151-0.426-0.214
	c-0.165-0.071-0.333-0.127-0.504-0.181c-0.158-0.05-0.313-0.101-0.474-0.136c-0.169-0.037-0.339-0.056-0.51-0.076
	c-0.039-0.005-0.077-0.014-0.115-0.017V317.15h250.343L536.543,475.883z M440.958,652.234c-2.523,8.883-4.119,18.013-4.729,27.287
	l-173.833-4.469L440.958,652.234z M435.982,690.25c0.197,13.097,2.314,25.909,6.305,38.241l-50.621-11.214
	c-0.068-0.016-0.139-0.029-0.21-0.042l-86.327-19.109c-0.007-0.001-0.014-0.003-0.021-0.005l-57.426-12.712L435.982,690.25z
	 M371.271,723.758c-15.863,6.698-39.723,19.187-61.87,40.212v-53.907L371.271,723.758z M309.401,835.008
	c11.857-5.328,21.646-11.066,30.349-16.182c19.719-11.598,34.427-20.203,59.748-16.395l-90.096,134.254v-25.311V835.008z
	 M449.773,746.775c5.6,11.196,12.736,21.472,21.338,30.669L340.217,910.026L449.773,746.775z M478.732,784.997
	c6.835,6.223,14.289,11.664,22.247,16.289l-30.56,22.713c-0.016,0.012-0.027,0.027-0.043,0.039l-113.279,84.165L478.732,784.997z
	 M566.684,818.991c1.256,0,2.507-0.034,3.754-0.071v159.302l-22.965-160.657C553.793,818.5,560.224,818.991,566.684,818.991z
	 M581.169,818.112c6.744-0.743,13.414-1.951,19.92-3.741l-7.092,55.295c-0.184,0.225-0.364,0.455-0.514,0.714
	c-0.903,1.569-0.915,3.4-0.21,4.927l-12.104,94.364V818.112z M663.852,824.028c-0.011-0.009-0.02-0.02-0.031-0.029l-31.13-23.138
	c7.918-4.722,15.319-10.271,22.083-16.608l122.367,123.948L663.852,824.028z M662.3,776.605c8.524-9.33,15.624-19.793,21.208-31.227
	l110.504,164.638L662.3,776.605z M692.408,739.378l51.147-11.323c9.226,2.803,70.437,23.275,103.678,81.455
	c0.686,1.2,1.808,2.089,3.133,2.482c1.525,0.452,31.761,9.236,66.799,8.672c-18.195,9.539-47.718,20.088-76.715,9.21
	c-16.634-6.238-29.316-13.699-40.503-20.283c-22.067-12.985-39.66-23.26-71.753-16.894L692.408,739.378z M690.294,728.855
	c4.149-12.35,6.514-25.267,7.044-38.581l189.203-4.864L690.294,728.855z M600.076,253.355c0.003,0,0.008,0,0.01,0
	c1.669,0,3.243-0.777,4.257-2.101l29.822-38.905l67.192,88.103c0.618,0.812,1.459,1.432,2.418,1.784l139.542,51.161l8.25,36.999
	c0.238,1.069,0.799,2.041,1.606,2.782l74.685,68.618c1.216,1.116,2.866,1.614,4.498,1.344c1.624-0.266,3.036-1.263,3.833-2.706
	l0.503-0.913v212.999l-187.943-24.014c16.845-22.03,35.598-28.364,60.683-36.759c11.323-3.79,24.155-8.084,38.386-14.4
	c51.274-22.777,50.962-71.094,50.925-73.14c-0.045-2.285-1.53-4.291-3.702-5c-2.172-0.705-4.556,0.037-5.939,1.857
	c-21.782,28.714-47.991,35.417-53.364,36.522c-50.975-13.979-97.052-1.258-121.289,8.289l115.088-145.081
	c0.083-0.105,0.14-0.222,0.215-0.331c0.097-0.142,0.197-0.281,0.279-0.431c0.088-0.162,0.157-0.332,0.228-0.501
	c0.06-0.142,0.125-0.28,0.172-0.426c0.06-0.186,0.096-0.376,0.135-0.567c0.029-0.14,0.066-0.277,0.083-0.419
	c0.024-0.192,0.022-0.386,0.025-0.58c0.002-0.144,0.015-0.287,0.006-0.431c-0.013-0.196-0.054-0.39-0.088-0.585
	c-0.025-0.138-0.035-0.277-0.071-0.414c-0.073-0.28-0.177-0.554-0.297-0.823c-0.02-0.044-0.028-0.091-0.049-0.134
	c-0.149-0.311-0.333-0.611-0.547-0.898c-0.006-0.008-0.01-0.018-0.016-0.026c-0.07-0.093-0.157-0.164-0.232-0.251
	c-0.134-0.156-0.258-0.318-0.413-0.46c-0.014-0.013-0.031-0.022-0.046-0.035c-0.133-0.12-0.279-0.215-0.421-0.32
	c-0.139-0.102-0.272-0.213-0.418-0.301c-0.14-0.083-0.287-0.144-0.432-0.214c-0.163-0.078-0.324-0.163-0.493-0.224
	c-0.146-0.053-0.296-0.084-0.445-0.124c-0.176-0.047-0.35-0.098-0.529-0.126c-0.158-0.026-0.317-0.031-0.477-0.042
	c-0.172-0.012-0.344-0.027-0.518-0.023c-0.167,0.004-0.33,0.027-0.497,0.047c-0.168,0.02-0.335,0.039-0.502,0.076
	c-0.162,0.035-0.319,0.086-0.477,0.136c-0.168,0.053-0.336,0.109-0.5,0.18c-0.147,0.063-0.288,0.139-0.431,0.216
	c-0.166,0.091-0.331,0.188-0.49,0.298c-0.063,0.043-0.132,0.071-0.193,0.117L680.334,520.221
	c0.407-27.153,11.608-43.914,26.547-66.157c6.657-9.914,14.202-21.15,21.575-34.627c26.919-49.237-2.63-87.445-3.904-89.048
	c-1.423-1.792-3.822-2.481-5.976-1.729c-2.156,0.756-3.6,2.795-3.592,5.081c0.113,36.044-16.641,57.274-20.239,61.415
	c-49.992,20.204-82.23,59.317-96.692,80.239l-25.7-164.5l-0.367-2.367c-0.106-0.68-0.345-1.303-0.671-1.864V219.02l24.501,32.217
	C596.828,252.569,598.405,253.352,600.076,253.355z M314.948,91.49c1.409,0,2.764-0.555,3.767-1.544L359.234,50h33.406
	l131.864,107.466l36.081,47.443v101.51H309.401V91.49H314.948z M298.67,214.161h-26.99V91.49h26.99V214.161z M199.036,148.429
	l61.913-50.942v116.675h-40.522L199.036,148.429z M220.262,224.892h46.053h32.355v81.527H189.955L220.262,224.892z M142.866,444.395
	l41.771-26.638c2.033-1.297,2.95-3.787,2.248-6.093l-16.264-53.238l15.345-41.276H298.67v240.383
	c-0.065,0.018-0.131,0.033-0.197,0.051c-5.421-1.119-31.598-7.836-53.359-36.521c-1.386-1.821-3.77-2.562-5.939-1.857
	c-2.174,0.709-3.66,2.717-3.702,5.003c-0.037,2.046-0.325,50.362,50.938,73.134c3.866,1.727,7.843,3.383,12.258,5.115v57.138
	l-106.851,13.653h-27.743l-9.792-59.507L142.866,444.395z M169.681,965.73c-0.935-1.736-2.748-2.818-4.721-2.818h-22.295v-15.472
	c0-1.381-0.532-2.706-1.485-3.705c-3.519-3.687-16.54-17.186-27.696-26.996h81.674v96.202L169.681,965.73z M100.463,906.009
	c-3.104-12.354-1.576-69.704,1.929-123.155h5.641c2.963,0,5.366-2.402,5.366-5.365v-45.687l30.532-6.64
	c1.575-0.342,2.911-1.373,3.642-2.807l17.781-34.919c0.519-1.02,0.7-2.181,0.514-3.31l-0.024-0.145h25.73l107.098,23.707v67.398
	c-7.793,8.794-14.661,18.19-20.375,28.016c-4.635,2.997-28.014,16.572-63.652,11.372c-2.292-0.333-4.485,0.81-5.538,2.837
	c-1.053,2.029-0.705,4.502,0.867,6.161c1.098,1.159,21.795,22.496,55.767,22.493c9.591-0.001,20.246-1.703,31.808-6.039
	c0.386-0.144,0.743-0.291,1.124-0.436v66.52h-98.148H100.463z M205.887,916.74h92.783v37.575v0.014v76.76l-92.783,11.176V916.74z
	 M547.97,1126.547h-41.124l-13.566-23.274c-0.961-1.649-2.725-2.663-4.635-2.663h-22.879l-68.161-17.896l-45.303-55.57
	c-1.161-1.425-2.971-2.151-4.8-1.937l-38.101,4.589v-72.788l151.423-112.505c-8.35,23.265-18.333,65.5-6.054,114.973
	c-1.252,5.384-8.627,31.399-37.855,52.438c-1.857,1.335-2.662,3.699-2.007,5.889c0.652,2.19,2.622,3.725,4.907,3.825
	c0.155,0.007,0.566,0.021,1.21,0.021c7.938,0,50.923-2.228,73.178-49.091c7.812-16.436,12.12-31.064,15.921-43.969
	c6.975-23.685,12.149-41.223,34.287-56.614l26.026,182.068v63.591L547.97,1126.547z M636.603,1093.333
	c-1.37-0.696-2.974-0.765-4.404-0.2l-51.03,20.245v-54.344h188.673v46.943v42.726l-42.594-9.43L636.603,1093.333z M780.573,1150
	v-38.658h60.665L780.573,1150z M858.077,1100.611h-77.504v-41.577h142.75L858.077,1100.611z M1016.925,715.847
	c-1.399,1.201-2.083,3.036-1.813,4.86l16.01,107.856c0.139,0.931,0.519,1.81,1.106,2.548l27.941,35.224l-63.92,108.266
	c-0.304,0.517-0.521,1.082-0.639,1.672l-8.441,42.075l-47.327,30.159c-0.446-0.12-0.906-0.205-1.389-0.205H775.207H581.9
	l21.211-165.37c16.971,12.84,19.355,25.238,22.713,42.988c2.347,12.412,5.271,27.858,14.189,46.635
	c22.258,46.872,65.266,49.095,73.202,49.094c0.642,0,1.056-0.014,1.21-0.021c2.284-0.1,4.255-1.635,4.907-3.825
	c0.655-2.192-0.152-4.556-2.007-5.891c-29.269-21.053-36.636-47.088-37.878-52.434c12.174-49.101,2.004-91.864-6.235-115.128
	l153.792,114.267c0.078,0.058,0.172,0.077,0.252,0.13c0.326,0.216,0.666,0.392,1.026,0.531c0.143,0.055,0.282,0.119,0.429,0.161
	c0.477,0.139,0.966,0.229,1.464,0.232c0.008,0,0.016,0.004,0.025,0.004c0.001,0,0.003,0,0.004,0c0.001,0,0.002,0,0.004,0
	c0.007,0,0.013-0.003,0.02-0.003c0.45-0.002,0.901-0.08,1.344-0.197c0.127-0.034,0.249-0.078,0.374-0.122
	c0.362-0.125,0.715-0.29,1.053-0.498c0.062-0.038,0.132-0.05,0.193-0.091c0.032-0.021,0.055-0.05,0.086-0.072
	c0.137-0.096,0.255-0.208,0.38-0.315c0.17-0.144,0.337-0.287,0.485-0.448c0.034-0.037,0.076-0.063,0.11-0.101
	c0.082-0.094,0.139-0.201,0.214-0.299c0.103-0.137,0.209-0.272,0.298-0.418c0.094-0.153,0.171-0.314,0.249-0.475
	c0.069-0.143,0.141-0.284,0.198-0.432c0.065-0.173,0.111-0.351,0.158-0.529c0.039-0.148,0.083-0.293,0.11-0.443
	c0.031-0.178,0.04-0.36,0.053-0.541c0.011-0.156,0.03-0.31,0.028-0.466c-0.003-0.179-0.03-0.357-0.05-0.536
	c-0.018-0.156-0.026-0.313-0.058-0.468c-0.043-0.208-0.116-0.412-0.184-0.616c-0.04-0.118-0.064-0.238-0.112-0.354
	c-0.132-0.318-0.296-0.628-0.495-0.925c-0.002-0.002-0.003-0.005-0.004-0.007l-99.928-148.886
	c25.336-3.812,40.053,4.801,59.776,16.406c11.564,6.805,24.671,14.518,42.177,21.082c10.181,3.82,20.32,5.364,30.06,5.364
	c40.04,0,73.33-26.09,75.054-27.464c1.894-1.512,2.541-4.105,1.577-6.33c-0.964-2.223-3.277-3.524-5.698-3.175
	c-35.892,5.238-73.275-3.69-82.246-6.06c-26.799-45.523-68.681-68.528-92.411-78.511l179.627-39.766h72.442h40.831
	C1042.34,694.101,1020.008,713.202,1016.925,715.847z M1068.895,673.748c-0.682-0.313-1.433-0.5-2.232-0.5h-46.209v-53.524h80.761
	C1099.18,629.263,1080.207,660.681,1068.895,673.748z"/>
</svg>
